<?xml version="1.0" standalone="no"?>
<!DOCTYPE svg PUBLIC "-//W3C//DTD SVG 20010904//EN"
 "http://www.w3.org/TR/2001/REC-SVG-20010904/DTD/svg10.dtd">
<svg version="1.0" xmlns="http://www.w3.org/2000/svg"
 width="1920.000000pt" height="1080.000000pt" viewBox="0 0 1920.000000 1080.000000"
 preserveAspectRatio="xMidYMid meet">

<g transform="translate(0.000000,1080.000000) scale(0.100000,-0.100000)"
fill="#FFFFFF" stroke="none">
<path d="M13800 7625 c-279 -57 -445 -225 -507 -515 -16 -77 -18 -141 -18
-650 0 -634 4 -682 60 -796 50 -102 209 -286 515 -599 283 -289 325 -335 388
-433 72 -112 76 -146 77 -687 0 -463 0 -471 -23 -543 -44 -140 -146 -201 -316
-190 -99 6 -159 37 -203 102 -73 108 -83 199 -83 794 l0 462 -210 0 -210 0 0
-543 c0 -558 5 -654 41 -787 60 -221 216 -380 426 -434 159 -41 399 -41 558
-1 173 44 294 142 368 297 83 174 97 288 97 808 -1 795 -21 878 -290 1183 -60
67 -193 205 -297 307 -200 197 -348 365 -399 456 -51 90 -54 126 -54 625 0
427 1 461 20 521 41 132 128 191 285 192 79 0 98 -3 148 -27 64 -32 90 -63
118 -143 33 -93 38 -182 39 -616 l0 -418 205 0 205 0 0 470 c0 267 -5 512 -11
566 -24 215 -75 340 -184 450 -82 83 -168 124 -310 149 -107 18 -344 18 -435
0z"/>
<path d="M6690 5210 l0 -2380 220 0 220 0 2 1088 3 1087 293 3 292 2 0 220 0
220 -295 0 -295 0 2 848 3 847 428 3 427 2 0 220 0 220 -650 0 -650 0 0 -2380z"/>
<path d="M8270 5210 l0 -2380 220 0 220 0 0 2380 0 2380 -220 0 -220 0 0
-2380z"/>
<path d="M9150 5210 l0 -2380 645 0 645 0 0 215 0 215 -425 0 -425 0 0 2165 0
2165 -220 0 -220 0 0 -2380z"/>
<path d="M10700 5210 l0 -2380 206 0 207 0 -5 1728 -5 1727 252 -1725 251
-1725 196 -3 195 -2 6 37 c4 21 117 790 252 1708 135 919 247 1677 248 1685 2
8 1 -760 -1 -1707 l-5 -1723 207 0 206 0 0 2380 0 2380 -304 0 -303 0 -20
-147 c-11 -82 -123 -910 -249 -1840 -126 -931 -231 -1693 -234 -1693 -3 0 -18
87 -32 193 -14 105 -126 933 -249 1840 l-223 1647 -298 0 -298 0 0 -2380z"/>
<path d="M4668 7490 c-196 -23 -304 -120 -329 -295 -32 -225 76 -385 285 -424
78 -14 1501 -15 1576 -1 73 14 162 56 198 93 124 129 117 421 -12 535 -95 83
-144 93 -488 99 l-288 5 0 -110 0 -110 263 -4 c256 -3 263 -4 304 -27 68 -39
91 -118 58 -197 -10 -25 -26 -40 -57 -54 -40 -18 -68 -20 -395 -20 l-353 0 0
260 0 260 -347 -1 c-192 -1 -378 -5 -415 -9z m600 -362 l3 -148 -288 0 c-261
0 -292 2 -330 19 -49 23 -73 62 -73 121 0 84 40 133 123 150 23 4 159 7 302 6
l260 -1 3 -147z"/>
<path d="M3680 6425 l0 -115 386 0 386 0 -37 -41 c-60 -66 -79 -120 -79 -221
1 -154 61 -236 201 -274 64 -18 118 -19 863 -19 644 0 805 3 850 14 150 38
219 117 228 262 8 130 -28 213 -122 280 l-39 29 40 0 c22 0 55 3 72 6 l31 7 0
93 0 94 -1390 0 -1390 0 0 -115z m2448 -129 c31 -16 74 -61 91 -93 16 -32 14
-119 -5 -154 -31 -60 -14 -59 -811 -59 -673 0 -731 1 -763 18 -96 47 -90 199
11 271 l42 31 704 0 c587 0 708 -2 731 -14z"/>
<path d="M3680 5400 l0 -120 210 0 210 0 0 120 0 120 -210 0 -210 0 0 -120z"/>
<path d="M4370 5400 l0 -120 1045 0 1045 0 0 120 0 120 -1045 0 -1045 0 0
-120z"/>
<path d="M5703 5045 c-124 -27 -224 -101 -365 -267 -99 -117 -191 -201 -248
-227 -53 -23 -390 -23 -442 1 -56 25 -80 70 -75 141 3 49 8 62 37 92 19 19 50
40 70 45 19 5 117 10 218 10 l182 0 0 106 0 106 -252 -4 c-235 -4 -257 -6
-311 -27 -112 -44 -158 -110 -177 -253 -28 -213 40 -370 186 -429 57 -23 68
-24 329 -24 l270 0 70 33 c61 29 92 55 243 208 183 186 262 246 345 264 76 17
363 10 401 -10 45 -23 69 -63 74 -122 3 -44 0 -59 -20 -87 -50 -74 -57 -76
-279 -79 l-199 -3 0 -105 0 -106 238 4 c215 3 242 6 292 26 113 45 171 123
192 256 14 93 0 219 -33 296 -26 61 -91 121 -157 146 -64 24 -493 31 -589 9z"/>
<path d="M4562 4089 c-61 -10 -137 -47 -169 -81 -38 -41 -56 -97 -56 -180 -1
-69 3 -85 34 -145 24 -46 50 -80 86 -109 l52 -43 -69 -7 -70 -7 0 -98 0 -99
1045 0 1045 0 0 115 0 115 -881 0 c-630 0 -887 3 -902 11 -92 47 -138 169 -95
251 5 10 23 26 41 35 30 17 95 18 935 21 l902 3 0 114 0 115 -922 -1 c-508 -1
-947 -5 -976 -10z"/>
<path d="M3680 2945 l0 -115 210 0 210 0 0 115 0 115 -210 0 -210 0 0 -115z"/>
<path d="M4370 2945 l0 -115 1045 0 1045 0 0 115 0 115 -1045 0 -1045 0 0
-115z"/>
</g>
</svg>
