<svg width="1566" height="435" viewBox="0 0 1566 435" fill="none" xmlns="http://www.w3.org/2000/svg">
<path d="M551.333 0.278685C533.467 2.81202 520.933 5.34535 511.6 8.27869C469.067 21.612 443.333 45.4787 431.733 82.1454C429.067 90.812 428.667 94.812 428.8 112.145C428.8 130.279 429.2 133.212 432.533 143.479C442.8 174.812 464 197.745 499.6 215.879C520.4 226.412 535.867 231.745 573.467 241.479C623.067 254.279 644.8 263.479 659.2 277.345C673.733 291.479 679.333 306.545 679.2 330.812C679.067 356.145 673.067 373.745 659.333 388.545C646.133 402.812 627.733 410.545 603.6 412.279C555.2 415.745 506.267 393.745 483.333 358.279C472.533 341.479 468 327.079 466.8 304.545L466 288.945L441.067 328.545L416.133 368.145L422.8 374.412C447.733 398.012 492.8 416.545 538.667 422.145C553.2 423.879 584.267 423.879 598.667 422.145C654 415.345 695.6 389.879 714.667 351.079C722.667 334.679 725.6 321.879 725.733 302.812C725.867 274.012 718.4 254.545 699.867 234.945C676.667 210.279 646 195.479 591.333 182.279C559.6 174.545 545.867 169.879 526.667 160.545C512 153.345 508.8 151.079 499.333 141.612C482.4 124.679 476 108.679 476 82.6787C476 58.2787 482.4 40.9454 496.267 28.1454C511.333 14.1454 527.333 9.47869 556.667 10.5454C571.467 11.0787 577.733 11.8787 587.067 14.6787C626.533 26.412 654.533 53.612 664.267 90.012C666.267 97.4787 667.067 104.545 667.2 117.079C667.2 126.545 667.467 134.145 667.6 134.145C668 134.145 717.333 55.7454 718 53.8787C718.533 52.5454 716.533 49.8787 712.4 46.1454C688.933 25.3454 658 10.5454 623.333 3.34535C613.2 1.34535 603.6 0.545351 582.667 0.145351C567.6 -0.121315 553.6 0.0120181 551.333 0.278685Z" fill="black"/>
<path d="M0 9.34534C0 10.5453 2.53333 11.3453 7.46667 12.012C22.9333 13.8787 36.2667 20.6787 41.0667 29.212C43.2 33.212 43.3333 43.0787 44.1333 162.812C44.8 288.412 44.9333 292.545 47.6 304.545C55.6 339.079 67.3333 361.479 88.1333 381.612C116.133 408.545 156.533 423.479 202 423.479C261.467 423.479 309.6 396.679 334.667 349.745C341.067 337.745 347.067 320.545 350.8 303.745C353.6 291.212 353.733 287.079 354.667 179.479C355.467 83.212 355.867 66.5453 357.733 56.412C363.2 28.1453 372.133 16.412 391.067 12.6787C395.867 11.612 398.667 10.412 398.667 9.34534C398.667 7.74534 389.467 7.47868 345.333 7.47868C300.8 7.47868 292 7.74534 292 9.34534C292 10.5453 294.133 11.4787 297.733 12.012C312 14.1453 325.2 24.812 331.6 39.212C336.667 50.812 339.867 67.8787 341.333 91.7453C343.067 119.879 343.067 263.345 341.333 284.145C337.2 334.145 312.933 372.279 272.667 392.145C255.867 400.412 243.733 403.612 225.2 404.412C193.333 405.879 164.4 395.212 142 373.479C125.067 357.212 114.267 337.079 107.6 310.279C104.933 299.079 104.8 295.612 104.4 168.812C104.133 97.3453 104.267 36.812 104.667 34.412C105.733 28.9453 112.267 21.4787 119.2 17.8787C122.133 16.412 129.6 14.1453 135.867 12.812C159.333 8.14534 152.4 7.47868 74.1333 7.47868C12.4 7.47868 0 7.74534 0 9.34534Z" fill="black"/>
<path d="M756 9.21201C756 10.5453 758.4 11.3453 763.467 12.012C780.133 14.012 793.067 21.0787 797.467 30.6787C799.867 35.8787 800 43.0787 800 211.479C800 379.879 799.867 387.079 797.467 392.279C793.067 401.879 780.133 408.945 763.467 410.945C758.533 411.612 756 412.412 756 413.612C756 415.212 768.4 415.479 830.133 415.479C908.4 415.479 915.333 414.812 891.867 410.145C874.8 406.679 864.933 400.545 861.467 391.079C860.533 388.545 860 366.279 860 326.679V266.145H908.4C960.933 266.145 974.933 264.945 1000 258.679C1032.93 250.412 1059.47 236.145 1079.87 215.345C1096.4 198.812 1106.67 180.545 1113.07 156.812C1116 145.745 1116.53 141.612 1116.4 122.812C1116.4 103.479 1116.13 100.412 1112.8 89.4787C1099.73 46.412 1068 22.1453 1009.73 10.5453C999.2 8.54534 985.467 8.27868 877.067 7.87868C773.733 7.47868 756 7.61201 756 9.21201ZM970.267 20.012C995.2 24.812 1013.33 33.8787 1028.27 48.812C1046.27 67.0787 1054.53 88.9453 1057.6 126.412C1059.47 149.345 1057.73 177.745 1053.33 194.812C1045.6 225.345 1028 243.479 998.667 250.679C982.933 254.545 953.2 256.145 929.867 254.279C910.267 252.812 882.533 248.412 867.333 244.412L860.667 242.679L860.267 129.612L860 16.5453L909.6 17.212C947.067 17.7453 962 18.412 970.267 20.012Z" fill="black"/>
<path d="M1140.93 11.7454C1146.13 17.3454 1154.53 30.012 1159.33 39.4787C1161.47 43.4787 1196.93 130.812 1238.27 233.479C1310.13 411.479 1313.47 420.412 1312.93 427.079L1312.4 434.145L1316 431.745C1318 430.545 1330.4 422.012 1343.73 412.812L1367.73 396.145L1438 232.812C1476.8 142.945 1510.53 65.212 1513.07 60.1454C1519.73 46.412 1531.33 29.612 1537.73 24.1454C1543.73 18.9454 1552.27 14.1454 1560.4 11.612C1563.07 10.6787 1565.33 9.34536 1565.33 8.6787C1565.33 8.01203 1543.47 7.4787 1511.33 7.4787C1476.93 7.4787 1457.33 8.01203 1457.33 8.81203C1457.33 9.4787 1458.93 10.412 1461.07 10.9454C1493.73 18.1454 1504.4 32.1454 1497.6 58.9454C1495.2 68.1454 1364.27 375.612 1361.47 378.545C1360.4 379.612 1238.13 74.1454 1235.07 62.2787C1232.67 53.3454 1232.4 39.0787 1234.67 33.4787C1236.67 28.2787 1243.47 21.212 1249.47 18.1454C1254.93 15.3454 1266.93 12.1454 1277.07 10.812C1296 8.2787 1278.8 7.4787 1210.4 7.4787H1136.8L1140.93 11.7454Z" fill="black"/>
</svg>
