<svg width="2280" height="200" viewBox="0 0 2280 200" fill="none" xmlns="http://www.w3.org/2000/svg">
    <path fill-rule="evenodd" clip-rule="evenodd"
        d="M486.83 118.962C465.3 105.188 437.752 97.4191 437.752 79.3393C437.752 70.7273 446.364 57.8094 457.557 57.8094H467.881C485.974 61.2594 491.992 75.0332 492.861 85.3701H499.748L498.023 54.3595V51.7785C492.861 50.9225 477.362 47.4725 461.85 47.4725C429.983 47.4725 411.903 62.1024 411.903 85.3572C411.903 100.856 419.659 111.18 429.996 118.949C450.657 135.291 481.655 142.178 481.655 164.577C481.655 178.35 467.881 182.669 458.413 182.669C442.058 182.669 423.965 172.332 412.772 165.446V188.7C417.934 190.425 436.027 199.037 454.107 199.037C485.974 199.037 509.228 187.844 509.228 155.109C509.228 137.885 498.892 127.548 486.83 118.962ZM27.8427 120.661C27.8427 93.1131 33.0047 58.6654 64.0154 58.6654C87.2572 58.6654 98.4631 80.1952 99.3191 91.3881H105.35L104.494 55.2155C95.0261 51.7655 81.2392 48.3285 61.4344 48.3285C14.0688 48.3285 0.294922 81.0512 0.294922 120.661C1.15093 162.864 16.6498 199.893 62.3034 199.893C79.5272 199.893 97.6071 189.556 106.219 185.25V164.577C101.057 168.882 85.5582 180.944 67.4783 180.944C33.0176 180.944 27.8427 142.191 27.8427 120.661ZM186.294 197.312V72.4522C186.294 67.2903 185.438 65.5653 183.713 63.8403C181.132 61.2593 169.939 59.5344 165.633 58.6784V50.0664H221.598L263.789 170.62H264.645L305.979 50.0664H341.283V197.325H315.447V72.4652L273.257 197.325H250.858L207.811 75.0462V197.325H186.294V197.312Z"
        fill="black" />
    <path fill-rule="evenodd" clip-rule="evenodd"
        d="M154.441 0.106934H167.359L125.155 134.435L154.441 0.106934ZM380.05 0.106934H393.837L350.777 134.435L380.05 0.106934ZM551.419 0.106934H565.193L522.146 134.435L551.419 0.106934Z"
        fill="black" />
    <path fill-rule="evenodd" clip-rule="evenodd"
        d="M637.525 120.661C637.525 93.113 642.687 58.6653 673.698 58.6653C696.94 58.6653 708.133 80.1951 709.002 91.388H715.033L714.177 54.3594C700.17 50.3949 685.687 48.3658 671.13 48.3284C623.764 48.3284 609.991 80.1951 609.991 120.661C610.847 162.864 626.345 199.037 671.986 199.037C689.21 199.037 709.871 188.7 715.902 184.394V163.72C710.74 168.026 695.241 180.944 677.161 180.944C642.7 180.944 637.525 142.191 637.525 120.661ZM789.959 197.312H815.795V128.417C815.795 108.638 808.908 93.126 777.041 93.126C750.349 93.126 735.707 104.332 735.707 125.836H763.267C764.123 118.975 763.267 103.45 777.041 103.45C785.653 103.45 789.959 108.625 789.959 123.242V140.466C775.316 140.466 732.257 143.047 732.257 174.057C732.257 188.7 744.305 199.037 760.673 199.037C776.172 199.037 786.509 188.7 789.09 183.538H789.959V197.312ZM789.959 157.689C789.959 172.332 783.072 184.394 770.154 184.394C763.267 184.394 758.961 179.232 758.961 170.62C758.961 154.252 781.347 150.815 789.972 149.946L789.959 157.689ZM844.199 117.211C843.343 106.044 840.749 104.319 827.844 103.437V95.681H870.034V118.949C872.615 109.455 881.227 93.1 899.307 93.1C918.256 93.1 923.418 108.612 925.143 117.198C929.449 109.442 935.467 93.1 954.416 93.1C976.814 93.1 980.251 112.049 980.251 129.26V197.299H954.429V130.985C954.429 124.098 953.573 112.062 944.092 112.062C926.868 112.062 925.156 142.178 925.156 151.659V197.312H899.307V133.579C899.307 121.517 898.451 112.075 888.114 112.075C870.021 112.075 870.021 147.366 870.021 157.702V197.325H844.186L844.199 117.211ZM1084.45 181.813C1078.2 184.556 1071.47 186.021 1064.65 186.119C1035.37 186.119 1025.89 152.527 1025.89 135.304H1086.18V131.854C1086.18 108.625 1073.26 93.113 1045.7 93.113C1012.11 93.113 1000.06 113.761 1000.06 141.322C1000.06 184.381 1025.02 199.024 1051.73 199.024C1066.37 199.024 1073.26 197.299 1084.44 192.137L1084.45 181.813ZM1025.91 124.967C1026.76 119.805 1029.35 103.45 1044.85 103.45C1058.63 103.45 1061.21 117.224 1061.21 124.967H1025.91ZM1112.01 119.792C1112.01 106.031 1109.43 104.319 1095.64 103.437V95.681H1137.83V121.504C1145.59 107.743 1153.35 94.812 1173.14 93.1V119.779C1147.31 119.779 1137.83 129.247 1137.83 151.646V197.299H1112.01V119.792ZM1228.27 199.037C1256.69 199.037 1274.78 185.263 1274.78 146.497C1274.78 107.769 1256.69 93.113 1228.27 93.113C1198.99 93.113 1180.91 107.756 1180.91 146.497C1180.89 185.25 1198.99 199.037 1228.27 199.037ZM1209.32 146.497C1209.32 124.098 1210.18 103.45 1228.27 103.45C1245.5 103.45 1246.37 124.111 1246.37 146.497C1246.37 168.882 1245.51 189.556 1228.27 189.556C1210.18 189.556 1209.32 168.882 1209.32 146.497ZM1298.02 119.792C1298.02 106.031 1294.57 104.319 1280.8 103.437V95.681H1322.98V118.949C1328.14 110.311 1335.9 93.1 1356.57 93.1C1376.37 93.1 1382.4 106.031 1382.4 127.535V197.299H1356.57V133.566C1356.57 121.504 1355.71 112.062 1345.38 112.062C1327.28 112.062 1322.98 141.322 1322.98 157.689V197.312H1298.02V119.792ZM1475.4 197.312V72.4521C1475.4 67.2902 1474.54 65.5652 1472.82 63.8402C1469.37 61.2592 1458.17 59.5343 1454.72 58.6783V50.0664H1510.7L1552.91 169.764L1595.11 50.0664H1630.4V197.325H1604.59V72.4651L1561.53 197.325H1540L1496.94 75.0462V197.325H1475.4V197.312ZM1733.76 182.669C1727.72 184.394 1721.69 186.119 1713.95 186.119C1690.7 186.119 1676.92 160.283 1676.92 133.579C1676.92 118.962 1682.08 103.45 1694.15 103.45C1705.34 103.45 1707.06 112.075 1707.06 130.142H1734.62C1734.62 106.887 1725.16 93.126 1695 93.126C1663.14 93.126 1649.35 112.918 1649.35 142.204C1649.35 182.682 1672.6 199.05 1701.89 199.05C1714.81 199.05 1723.42 197.325 1733.76 193.019V182.669ZM1756.15 197.312V74.1642C1756.15 62.1023 1754.43 60.3903 1735.48 58.6653V50.0534H1784.55V114.63L1831.91 51.7784H1861.2L1808.66 117.211L1867.23 197.312H1832.78L1784.55 126.692V197.312H1756.15ZM1950.75 181.813C1943.87 184.394 1936.98 186.119 1930.95 186.119C1901.69 186.119 1892.22 152.527 1892.22 135.304H1952.48V131.854C1952.48 108.625 1939.56 93.113 1911.16 93.113C1877.56 93.113 1866.37 113.761 1866.37 141.322C1866.37 184.381 1891.35 199.024 1917.16 199.024C1932.66 199.024 1938.69 197.299 1950.75 192.137V181.813ZM1892.21 124.967C1892.21 119.805 1895.66 103.45 1910.27 103.45C1924.05 103.45 1927.5 117.224 1927.5 124.967H1892.21ZM1974.86 119.792C1974.86 106.031 1972.28 104.319 1958.5 103.437V95.681H2000.7V118.949C2005.01 110.311 2013.62 93.1 2034.29 93.1C2053.24 93.1 2060.13 106.031 2060.13 127.535V197.299H2034.29V133.566C2034.29 121.504 2033.44 112.062 2023.1 112.062C2005.01 112.062 2000.7 141.322 2000.7 157.689V197.312H1974.86V119.792ZM2089.39 119.792C2089.39 106.031 2086.81 104.319 2073.02 103.437V95.681H2115.22V118.949C2119.53 110.311 2128.14 93.1 2148.81 93.1C2167.76 93.1 2174.65 106.031 2174.65 127.535V197.299H2148.81V133.566C2148.81 121.504 2147.96 112.062 2137.62 112.062C2119.53 112.062 2115.22 141.322 2115.22 157.689V197.312H2089.39V119.792ZM2253.87 197.312H2279.71V128.417C2279.71 108.638 2272.82 93.126 2240.95 93.126C2214.27 93.126 2199.63 104.332 2199.63 125.836H2227.16C2228.02 118.975 2227.16 103.45 2240.94 103.45C2249.55 103.45 2253.86 108.625 2253.86 123.242V140.466C2239.21 140.466 2196.18 143.047 2196.18 174.057C2196.18 188.7 2208.24 199.037 2224.57 199.037C2240.07 199.037 2250.41 188.7 2252.99 183.538H2253.84V197.312H2253.87ZM2253.87 157.689C2253.87 172.332 2246.98 184.394 2234.06 184.394C2227.18 184.394 2222.87 179.232 2222.87 170.62C2222.87 154.252 2245.27 150.815 2253.88 149.946V157.689H2253.87Z"
        fill="black" />
</svg>