<svg width="920" height="154" viewBox="0 0 920 154" fill="none" xmlns="http://www.w3.org/2000/svg">
    <path
        d="M58 3.33341C49.4667 5.60007 38.6667 9.46674 38.6667 10.4001C38.6667 10.5334 42.8 10.5334 48 10.2667C58.9334 9.60007 66.6667 10.8001 66.6667 13.0667C66.5334 14.0001 63.6 17.8667 59.8667 21.8667C53.4667 28.6667 53.0667 28.9334 49.3334 27.3334C42.9334 24.6667 32.9334 25.4667 25.7334 29.2001C2.40003 40.9334 -6.66663 76.6667 6.80003 104.133C19.7334 130.267 47.0667 138.267 63.4667 120.4C74.4 108.667 78.2667 98.6667 79.8667 77.6001C81.2 62.5334 84 52.4001 89.3334 43.6001C90.8 41.3334 92.9334 39.3334 94 39.3334C98.5334 39.3334 106.667 64.6667 106.667 78.6667C106.667 97.0667 98.2667 119.467 87.0667 130.933C77.3334 140.933 68.2667 145.2 56.6667 145.2C51.6 145.333 45.6 144.933 43.3334 144.267C36 142.4 43.3334 146.933 53.2 150.267C66.6667 154.933 87.4667 154.667 102 149.6C114.4 145.333 119.333 142.667 112 144.133C105.333 145.467 94.5334 145.067 90.2667 143.467C86 141.867 86 141.733 94.9334 131.467C99.6 125.867 99.8667 125.867 104.933 127.2C118.533 131.067 129.2 127.6 139.867 115.867C148.133 106.8 152 96.9334 152.933 82.5334C153.867 69.3334 152 60.4001 145.733 48.5334C140.133 37.6001 134.667 31.8667 126 27.8667C113.467 22.0001 100.133 24.1334 90.2667 33.7334C79.4667 44.1334 75.0667 55.8667 73.3334 77.8667C72.1334 94.4001 69.2 104.4 63.0667 112.4C60 116.533 59.6 116.667 57.3334 114.667C52.6667 110.4 48.9334 95.7334 48.2667 79.3334C47.3334 53.7334 52.9334 37.0667 67.3334 22.5334C80 9.7334 92.4 6.40007 112 10.6667C113.867 11.0667 111.733 9.60007 107.333 7.33341C93.7334 0.66674 74.1334 -0.93326 58 3.33341Z"
        fill="black" />
    <path
        d="M226.667 14.9335C232.933 16.0001 233.333 18.0001 233.333 45.8668C233.333 60.2668 232.8 72.8001 232.133 73.7335C231.6 74.6668 229.333 76.0001 227.2 76.6668C224.667 77.3335 233.2 77.8668 251.467 77.8668L279.733 78.0001L281.067 68.4001C281.867 63.0668 282.267 58.5335 282 58.2668C281.733 58.0001 280.533 59.8668 279.333 62.4001C278.133 64.9335 276 68.1335 274.667 69.3335C271.2 72.4001 263.067 75.2001 257.067 75.3335C249.333 75.3335 248 72.9335 248 59.2001V47.3335H251.733C256.267 47.3335 259.333 50.2668 261.867 57.4668C263.733 62.4001 263.867 62.0001 263.867 45.3335C263.867 28.6668 263.733 28.2668 261.867 33.2001C259.333 40.4001 256.267 43.3335 251.733 43.3335H247.867L248.267 30.2668L248.667 17.3335L254.667 16.9335C264.8 16.2668 270.8 19.0668 274.4 26.0001L277.333 31.8668V22.9335V14.0001L250.4 14.1335C235.467 14.2668 224.8 14.6668 226.667 14.9335Z"
        fill="black" />
    <path
        d="M665.067 15.4668L669.333 16.8001V45.2001C669.333 74.9334 669.2 75.6001 663.333 77.0668C661.867 77.3334 669.733 77.7334 680.667 77.8668C703.867 78.0001 709.6 76.8001 715.6 70.4001C723.867 61.7334 719.867 49.4668 707.733 45.7334L702.4 44.1334L708 41.3334C717.067 36.6668 719.467 30.1335 714.667 22.4001C710.133 14.9335 706.667 14.0001 682.4 14.1335C666.533 14.2668 661.867 14.5335 665.067 15.4668ZM698.267 21.3335C702 25.6001 702.4 33.7334 698.933 38.0001C696.667 40.8001 686.267 43.8668 684.667 42.2668C684.267 41.8668 684 35.8668 684 28.9335V16.2668L689.6 17.0668C693.467 17.6001 696.267 18.9335 698.267 21.3335ZM699.867 50.5334C702.667 53.3334 703.333 55.3334 703.333 60.6668C703.333 68.2668 699.6 73.2001 692.533 74.6668C685.467 76.0001 684 73.2001 684 58.4001V45.6001L690.133 46.4001C694.4 46.8001 697.467 48.1334 699.867 50.5334Z"
        fill="black" />
    <path
        d="M833.333 16.6668C835.867 19.2001 836 20.9335 836 46.0001C836 70.9335 835.867 72.8001 833.333 75.3335L830.667 78.0001H842.267C852 78.0001 853.467 77.7335 851.467 76.2668C848.267 74.0001 847.333 61.6001 850 59.3335C851.2 58.4001 852.267 57.8668 852.4 58.1335C852.667 58.4001 855.067 62.1335 857.867 66.4001C861.867 72.6668 862.533 74.5335 861.333 76.0001C859.867 77.7335 861.333 78.0001 871.333 78.0001C883.067 78.0001 883.067 78.0001 879.867 75.4668C876.533 72.8001 861.333 51.2001 861.333 49.0668C861.333 47.2001 872.267 36.9335 876 35.4668C878.667 34.4001 877.067 34.1335 868.667 34.1335C860.933 34.1335 858.8 34.5335 861.067 35.3335C862.667 36.0001 864 37.7335 864 39.0668C864 41.3335 851.067 55.3335 848.933 55.3335C848.4 55.3335 848 46.1335 848.133 34.9335L848.267 14.6668L839.467 14.2668L830.533 13.8668L833.333 16.6668Z"
        fill="black" />
    <path
        d="M368.667 37.6001L364 42.4001V38.2668V34.0001L354.4 34.1334C349.067 34.1334 345.6 34.5334 346.667 34.9334C350.267 36.2668 350.667 38.4001 350.667 56.2668C350.667 72.9334 350.533 74.0001 347.733 75.8668C344.933 77.8668 345.6 78.0001 357.333 77.8668C366.267 77.8668 369.067 77.4668 367.067 76.6668C364.133 75.4668 364 74.6668 364 61.6001C364 49.4668 364.4 47.2001 366.8 44.1334C369.467 40.8001 369.733 40.6668 372.8 42.6668C377.333 45.6001 381.2 45.2001 382.8 41.4668C384.933 36.9334 382.4 32.6668 377.333 32.6668C374.667 32.6668 372 34.1334 368.667 37.6001Z"
        fill="black" />
    <path
        d="M397.333 35.6001C384.933 44.1334 384.4 66.9334 396.533 75.8667C401.733 79.7334 414.267 79.7334 419.6 75.8667C428.133 69.6001 431.2 54.2667 425.867 44.0001C422 36.6667 415.867 32.6667 408 32.6667C403.733 32.6667 400.4 33.6001 397.333 35.6001ZM412.533 38.2667C414.133 40.5334 414.667 44.8001 414.667 56.0001C414.667 67.2001 414.133 71.4667 412.533 73.7334C409.867 77.6001 405.867 77.4667 403.2 73.3334C400.4 69.2001 400.933 41.0667 403.867 37.6001C406.4 34.4001 410.133 34.8001 412.533 38.2667Z"
        fill="black" />
    <path
        d="M456.8 35.4667C454 37.7334 453.333 37.8667 453.333 36.1334C453.333 34.4 451.6 34 443.733 34.1334C438.4 34.1334 434.933 34.5334 436 34.9334C437.067 35.3334 438.4 36.4 438.933 37.2C439.467 38 440 51.3334 440 66.9334C440 94.6667 440 95.2 437.067 97.2C434.267 99.2 434.933 99.3334 446.533 99.3334C458.533 99.3334 458.933 99.2 456.267 96.9334C453.867 95.0667 453.467 93.0667 453.333 85.3334C453.067 72.9334 452.933 73.2 455.867 75.8667C459.867 79.6 467.867 80 472.933 76.8C488.933 66.6667 483.333 32.6667 465.6 32.6667C462.267 32.6667 459.067 33.7334 456.8 35.4667ZM466.267 41.6C469.6 46.8 469.6 66.5334 466.267 71.7334C463.467 76 461.467 76.2667 456.8 72.5334C453.467 69.8667 453.333 69.3334 453.333 56.4C453.333 45.7334 453.733 42.4 455.6 40.4C458.8 36.8 463.467 37.3334 466.267 41.6Z"
        fill="black" />
    <path
        d="M501.333 35.7334C494.267 40.4001 491.467 46.4001 491.467 56.6667C491.333 64.1334 491.867 66.4001 494.933 71.0667C501.867 81.3334 514.667 82.0001 523.333 72.5334C526 69.4667 527.867 66.8001 527.467 66.4001C527.067 65.8667 525.2 67.2001 523.467 69.0667C519.733 73.0667 515.333 73.6001 510.933 70.5334C507.2 68.0001 504 61.8667 504 57.3334C504 54.0001 504 54.0001 516.133 54.0001H528.267L527.333 49.0667C526 41.7334 523.067 36.9334 518.667 34.6667C513.2 31.8667 506.4 32.1334 501.333 35.7334ZM514.667 37.8667C515.333 39.3334 516 42.9334 516 46.0001V51.4667L509.733 51.0667L503.333 50.6667L503.733 46.0001C504.667 36.8001 511.333 31.8667 514.667 37.8667Z"
        fill="black" />
    <path
        d="M544.4 34.8C536.8 38.1334 533.867 44.9334 538.4 49.0667C541.734 52.1334 544.8 51.8667 547.2 48.5334C548.934 46 548.934 45.2 547.2 41.8667C545.467 38.4 545.467 38 547.867 36.6667C554 33.4667 558.667 36.8 558.667 44.6667C558.667 49.6 558.4 49.8667 549.067 54.9334C537.867 60.9334 533.2 67.6 535.867 73.4667C538.4 79.0667 543.467 80 551.2 76.1334C557.067 73.2 558.267 72.9334 559.467 74.6667C562 78.1334 567.067 79.2 571.467 77.3334C576.267 75.3334 578.8 71.2 574.534 72.2667C572.134 72.9334 572 72.1334 572 59.0667C572 42.8 570.534 37.3334 565.2 34.6667C560.534 32.2667 550.134 32.2667 544.4 34.8ZM558.667 61.3334C558.667 67.8667 558.267 68.9334 555.334 70.2667C551.2 72.1334 548 69.8667 548 65.0667C548 61.8667 554.8 54 557.467 54C558.134 54 558.667 57.3334 558.667 61.3334Z"
        fill="black" />
    <path
        d="M606.4 35.3335C602.267 38.5335 601.333 38.6668 601.333 36.0001C601.333 34.4001 599.467 34.0001 592.533 34.0001C584.667 34.0001 584 34.1335 585.867 36.1335C589.067 39.2001 588.933 72.0001 585.733 75.6001C583.733 77.8668 584 78.0001 594.667 78.0001C603.867 78.0001 605.467 77.7335 603.6 76.2668C601.867 74.9335 601.333 71.8668 601.2 58.8001C601.067 43.7335 601.2 42.6668 604 40.4001C611.2 34.5335 613.333 38.6668 613.333 58.1335C613.333 70.2668 612.933 73.6001 611.067 75.6001C609.067 77.8668 609.333 78.0001 620 78.0001C629.2 78.0001 630.8 77.7335 629.067 76.2668C627.333 75.0668 626.8 71.0668 626.4 57.6001C625.867 43.2001 625.333 40.0001 623.067 36.9335C619.467 32.1335 611.333 31.3335 606.4 35.3335Z"
        fill="black" />
    <path
        d="M740.667 33.6C732.133 35.7334 727.067 44 731.333 48.6667C734.4 52 737.6 52 740.533 48.8C742.667 46.4 742.667 45.8667 740.8 42.1334C738.8 38.4 738.8 38 741.2 36.6667C747.333 33.4667 752 36.8 752 44.6667C752 49.6 751.733 49.8667 742.4 54.9334C730.933 61.2 726.533 67.3334 729.6 73.6C730.533 75.6 732.8 77.6 734.667 78.1334C738.267 78.9334 745.867 76.5334 749.467 73.2C751.6 71.3334 751.867 71.4667 752.667 74C753.867 77.8667 758.933 79.6 764 77.8667C768.667 76.1334 772.4 71.0667 768.133 72.2667C765.733 72.9334 765.467 71.8667 765.067 56.6667L764.667 40.4L760.267 36.5334C756.667 33.3334 754.8 32.6667 749.6 32.8C746.133 32.9334 742.133 33.3334 740.667 33.6ZM752 61.3334C752 67.8667 751.6 68.9334 748.667 70.2667C741.2 73.6 738.667 64.5334 745.2 57.8667C750.8 52.2667 752 52.9334 752 61.3334Z"
        fill="black" />
    <path
        d="M799.6 35.3335C795.6 38.5335 794.667 38.6668 794.667 36.0001C794.667 34.4001 792.8 34.0001 785.867 34.0001C778 34.0001 777.333 34.1335 779.2 36.1335C782.4 39.2001 782.267 72.0001 779.067 75.6001C777.067 77.8668 777.333 78.0001 788.133 78.0001C796.4 77.8668 798.667 77.6001 797.067 76.5335C794.933 75.3335 794.667 73.0668 794.667 59.3335C794.667 45.0668 794.933 43.0668 797.333 40.6668C804.133 33.8668 806.667 38.6668 806.667 58.1335C806.667 70.2668 806.267 73.6001 804.4 75.6001C802.4 77.8668 802.667 78.0001 813.467 78.0001C821.733 77.8668 824 77.6001 822.4 76.5335C820.4 75.4668 820 73.0668 820 61.6001C819.867 45.3335 818.533 38.1335 814.533 34.9335C810.8 31.8668 803.867 32.0001 799.6 35.3335Z"
        fill="black" />
    <path
        d="M292.8 35.8668C295.067 37.6001 295.467 40.0001 296 56.0001C296.667 73.4668 296.8 74.2668 300 76.8001C304.267 80.1335 312.267 79.4668 316.8 75.2001L320 72.2668V75.0668C320 77.8668 320.667 78.0001 329.6 78.0001C338.667 78.0001 339.067 77.8668 336.267 75.8668C333.467 74.0001 333.334 73.0668 333.334 53.8668V34.0001H324.4C317.6 34.1334 315.867 34.4001 317.734 35.4668C319.734 36.6668 320 38.9334 320 52.5334C320 66.1335 319.6 68.5335 317.6 70.4001C314.534 73.2001 309.867 73.3335 308.8 70.5335C308.4 69.3335 308 60.6668 308 51.2001V34.0001H299.067C291.067 34.0001 290.4 34.1334 292.8 35.8668Z"
        fill="black" />
    <path
        d="M203.333 111.333C205.867 114.133 209.333 114.933 209.333 112.667C209.333 111.2 204.933 108.667 202.533 108.667C201.467 108.667 201.867 109.6 203.333 111.333Z"
        fill="black" />
    <path
        d="M499.333 110.133C498 112.133 499.467 113.2 502 112.133C503.2 111.733 503.733 110.8 503.333 110C502.267 108.267 500.4 108.267 499.333 110.133Z"
        fill="black" />
    <path
        d="M634.533 109.733C632.8 110 632.533 111.333 632.933 115.867L633.6 121.467L629.067 120.933C625.2 120.533 623.867 121.067 621.467 124C617.733 128.8 617.733 137.067 621.333 140.667C624.267 143.6 630 144.267 631.467 141.867C632.133 140.8 632.667 140.8 633.333 142C634 143.067 635.067 143.2 636.133 142.533C637.6 141.6 637.867 138 637.333 125.333C636.8 111.467 636.4 109.333 634.533 109.733ZM632.667 125.067C633.2 126.8 633.333 130.8 633.067 134.133C632.8 138.933 632.133 140.133 629.867 140.4C625.467 141.067 622.667 137.2 622.667 130.8C622.667 124.533 624.4 122 628.933 122C630.933 122 632.133 122.933 632.667 125.067Z"
        fill="black" />
    <path
        d="M763.333 109.733C762.533 110.267 762.133 116.933 762.4 126.267C762.8 140 763.067 142 765.067 142C767.067 142 767.333 140.267 766.933 125.333C766.533 109.2 766.133 107.6 763.333 109.733Z"
        fill="black" />
    <path
        d="M196 112.533C195.333 114 194.667 116.4 194.667 117.867C194.667 119.6 193.867 120.667 192.4 120.667C190.4 120.667 190.4 120.8 192.667 122.4C194.667 124 194.933 125.6 194.4 133.467C193.867 141.6 194 142.8 196 142.8C198 142.8 198.133 141.467 197.6 133.067C197.067 123.867 197.2 123.333 200.133 122.133L203.333 120.8H200.4C198 120.667 197.333 119.867 197.333 116.933C197.333 114.933 198 112.533 198.933 111.6C200.133 110.4 200.133 110 198.933 110C198.133 110 196.8 111.2 196 112.533Z"
        fill="black" />
    <path
        d="M263.333 125.867C263.333 141.067 263.467 142 266 142C268.4 142 268.667 141.333 268.267 134.667C267.6 125.067 269.733 125.067 276.667 134.667C280.8 140.267 282.8 142 285.333 141.867C287.2 141.867 288 141.467 287.067 141.2C286.133 140.8 283.333 137.6 280.8 134L276 127.333L279.067 125.867C282.8 123.867 284 122.133 284 118.533C284 114 279.6 111.2 271.067 110.4L263.333 109.733V125.867ZM277.067 114.267C281.333 117.733 277.333 126 271.2 126C268.267 126 268 125.467 268 119.6C268 116 268.4 112.667 268.933 112.267C270 111.2 274.533 112.4 277.067 114.267Z"
        fill="black" />
    <path
        d="M658.4 125.867L658.8 142H667.333C677.467 142 681.467 140.4 684.4 135.333C688.667 128.133 686.267 116 679.867 112.533C678.4 111.733 672.8 110.8 667.6 110.4L658 109.6L658.4 125.867ZM676.933 114.667C681.067 117.467 682.933 125.467 681.2 131.733C679.467 138 675.067 140.933 668.4 140.4L663.333 140L662.933 126.267L662.533 112.667H668.267C671.467 112.667 675.333 113.6 676.933 114.667Z"
        fill="black" />
    <path
        d="M407.6 118.667C406.267 120.667 405.867 122.133 406.667 122.667C407.333 123.067 408 127.6 408 132.667C408 142.133 409.067 144.267 413.067 142.667C415.2 141.867 415.2 141.733 413.067 140.533C411.2 139.467 410.667 137.467 410.667 131.2C410.667 124.133 411.067 123.067 413.733 122L416.667 120.8H413.733C412 120.667 410.667 119.733 410.4 118.133C410 115.733 409.867 115.867 407.6 118.667Z"
        fill="black" />
    <path
        d="M485.333 118C483.867 120.533 483.467 123.867 484 130.933C484.667 141.2 486.4 144.267 490.267 142.8C492.533 141.867 492.533 141.733 490.4 140.533C488.533 139.467 488 137.467 488 130.667C488 122.933 488.267 122.133 491.067 121.6C494 121.067 494 121.067 491.067 120.8C489.2 120.667 488 119.6 487.733 117.733C487.333 114.8 487.333 114.8 485.333 118Z"
        fill="black" />
    <path
        d="M910.267 118.667C908.933 120.667 908.533 122.133 909.333 122.667C910 123.067 910.667 127.6 910.667 132.667C910.667 139.733 911.2 141.867 912.8 142.533C916 143.733 917.6 142.133 915.333 139.867C914 138.533 913.333 135.2 913.333 130.533C913.333 124.267 913.733 123.067 916.4 122L919.333 120.8H916.4C914.667 120.667 913.333 119.733 913.067 118.133C912.667 115.733 912.533 115.867 910.267 118.667Z"
        fill="black" />
    <path
        d="M209.6 123.733C205.467 128.133 205.6 136.533 209.733 140.4C219.467 149.6 232.267 134.8 223.867 124.133C220.267 119.6 213.6 119.333 209.6 123.733ZM220.533 124.933C223.067 128.533 223.333 138.133 221.067 140.4C216.533 144.933 210.667 139.467 210.667 130.667C210.667 122.133 216.4 118.933 220.533 124.933Z"
        fill="black" />
    <path
        d="M232.267 121.6C230.933 122.133 230.933 122.667 232 124.133C232.933 125.2 233.333 129.2 233.067 133.867C232.8 140.267 233.067 142 234.8 142.4C236.533 142.8 236.8 141.467 236.533 132.8C236.4 127.2 236.133 122.267 236.133 121.6C236 120.533 234.933 120.533 232.267 121.6Z"
        fill="black" />
    <path
        d="M239.334 121.867C238.934 122.533 239.867 123.6 241.467 124C244.534 125.067 246 124.133 244.667 122.133C243.6 120.4 240.4 120.267 239.334 121.867Z"
        fill="black" />
    <path
        d="M296.267 123.733C292.4 127.867 292.267 136.4 296 140.4C300.267 144.933 306.8 144.133 309.6 138.8C310.8 136.533 310.667 136.267 309.2 137.6C304.667 142 296 137.6 296 131.067C296 129.067 297.2 128.667 303.333 128.667C311.2 128.667 312.667 126.933 308.533 122.8C305.467 119.733 299.6 120.133 296.267 123.733ZM305.067 123.6C307.867 126.4 306.8 127.333 301.333 127.333C298.4 127.333 296 126.8 296 126.267C296 124.4 299.067 122 301.333 122C302.533 122 304.133 122.667 305.067 123.6Z"
        fill="black" />
    <path
        d="M318 124C313.867 128 313.6 134.933 317.467 139.867C321.334 144.8 328 144.4 330.934 138.8C332.134 136.533 332 136.267 330.534 137.6C327.867 140.267 321.6 139.733 320 136.8C318.134 133.2 318.267 125.6 320.267 123.6C322.8 121.067 326.8 121.733 327.6 124.667C328.4 127.6 332 128.4 332 125.6C332 120 322.934 118.933 318 124Z"
        fill="black" />
    <path
        d="M340.133 123.867C333.733 130.667 338.133 143.333 346.933 143.333C352.4 143.333 357.333 138 357.333 132.267C357.333 122 346.667 116.8 340.133 123.867ZM351.2 124.933C353.6 128.4 354 135.6 352 139.467C347.6 147.6 337.733 134.933 341.2 125.6C342.933 121.067 348.267 120.667 351.2 124.933Z"
        fill="black" />
    <path
        d="M362.934 121.6C361.6 122.133 361.6 122.667 362.667 124.133C363.6 125.2 364 129.2 363.734 134C363.467 140.4 363.734 142 365.334 142C366.934 142 367.2 140.533 366.934 134.667C366.4 126.4 368 123.333 372.8 123.333C376.534 123.333 377.867 127.067 377.067 136C376.8 140.667 377.067 142 378.667 142C380.267 142 380.534 140.4 380 132.533C379.2 120.933 377.067 118.667 370.667 122.267C367.334 124.133 366.667 124.267 366.667 122.667C366.667 120.667 365.867 120.4 362.934 121.6Z"
        fill="black" />
    <path
        d="M388 122.667C385.333 125.867 387.467 130.533 393.333 133.867C399.6 137.333 400.133 141.067 394.4 141.733C392 142 390.267 141.2 388.8 139.067L386.667 136.133V139.067C386.667 144.933 399.333 144.667 400.8 138.667C401.867 134.533 400.933 133.2 394.533 130C389.2 127.2 388.133 125.067 390.933 122.267C392 121.2 392 120.667 391.067 120.667C390.267 120.667 388.933 121.6 388 122.667Z"
        fill="black" />
    <path
        d="M396.934 123.333C398.267 124.8 399.467 126 399.6 126C399.867 126 400 124.8 400 123.333C400 121.6 399.067 120.667 397.334 120.667C394.8 120.667 394.8 120.8 396.934 123.333Z"
        fill="black" />
    <path
        d="M420 122C418.667 122.8 418.533 123.333 419.733 123.333C420.8 123.333 421.333 126.133 421.333 132.667C421.333 140.667 421.733 142 423.733 142C425.6 142 426 140.667 426 133.067V124L429.733 124.4C432.267 124.667 433.333 124.133 433.333 122.667C433.333 120.267 429.2 120 426.933 122.267C425.733 123.467 425.333 123.467 425.333 122.267C425.333 120.4 422.8 120.267 420 122Z"
        fill="black" />
    <path
        d="M435.733 121.6C436.8 122 437.333 125.067 437.333 130.133C437.333 142.533 440.667 146.133 447.733 141.2C450.4 139.333 450.667 139.333 450.667 141.2C450.667 143.6 451.467 143.733 455.333 142C456.8 141.333 457.2 140.8 456.4 140.8C455.2 140.667 454.667 137.733 454.667 130.667V120.667H451.067C448.533 120.667 447.867 121.067 449.067 121.867C451.6 123.467 450.667 138 447.867 139.733C443.2 142.667 441.333 140 441.333 130C441.333 120.667 441.333 120.667 437.733 120.8C435.6 120.8 434.8 121.2 435.733 121.6Z"
        fill="black" />
    <path
        d="M465.6 121.467C462.4 122.8 459.733 130.133 460.667 134.8C462 142.4 470.533 146 475.067 140.933C478.267 137.467 477.867 136.133 474.533 138.533C469.333 142.133 464.133 137.867 464 129.867C464 122.133 469.733 119.2 473.733 124.933C476 128.4 478.667 127.067 476.533 123.6C475.067 121.333 468.933 120.133 465.6 121.467Z"
        fill="black" />
    <path
        d="M499.067 121.6C497.867 122 497.734 122.933 498.534 124.533C499.334 125.867 499.734 130.267 499.6 134.4C499.334 140.4 499.734 142 501.334 142C502.934 142 503.2 140.133 502.934 131.333C502.667 125.467 502 120.667 501.6 120.8C501.067 120.8 499.867 121.2 499.067 121.6Z"
        fill="black" />
    <path
        d="M513.734 123.333C504.934 131.467 511.867 145.6 523.334 142.8C527.067 141.867 530.667 135.867 530.667 130.667C530.667 122.667 519.6 117.733 513.734 123.333ZM524 124C526.267 126.8 527.2 135.867 525.467 139.2C522.267 145.067 515.2 140.933 513.734 132.4C513.334 129.733 513.734 126.4 514.534 124.8C516.4 121.6 521.6 121.067 524 124Z"
        fill="black" />
    <path
        d="M536.266 121.6C535.466 121.867 535.066 122.8 535.466 123.6C536 124.4 536.266 128.8 536.133 133.467C536 140.8 536.266 142 538.266 142C540.266 142 540.666 140.8 540.666 133.867C540.666 125.2 542.666 122 547.2 123.733C548.8 124.4 549.333 126.4 549.333 133.333C549.333 140.667 549.733 142 551.733 142C553.733 142 554 140.8 553.6 132.8C553.066 121.6 551.333 119.333 544.933 121.733C542.133 122.8 540.533 122.933 540.266 122C539.733 120.533 538.933 120.533 536.266 121.6Z"
        fill="black" />
    <path
        d="M574.267 123.067C572.933 124.4 572.4 126 572.933 126.4C574.533 128 575.733 127.333 576.4 124.533C577.333 120.8 583.2 121.467 583.733 125.467C584 127.6 583.067 128.8 580 130C574.267 132.4 572 134.933 572 138.8C572 142.533 577.467 144.667 580.667 142C582.267 140.667 583.067 140.667 584.667 142C587.733 144.533 588.533 142.8 588.133 134.4C587.6 123.2 586.267 120.667 580.933 120.667C578.267 120.667 575.467 121.6 574.267 123.067ZM584 133.867C584 138.133 581.067 141.333 578 140.133C574.933 138.933 575.6 133.333 579.067 131.6C583.467 129.467 584 129.6 584 133.867Z"
        fill="black" />
    <path
        d="M594.934 121.6C593.6 122.133 593.6 122.667 594.667 124.133C595.6 125.2 596 129.2 595.734 134C595.334 140.933 595.6 142 597.734 142C599.6 142 600 140.667 600 133.333C600 125.2 600.134 124.667 603.467 123.867C608.4 122.667 609.6 124.667 609.067 133.867C608.8 140.533 609.067 142 610.667 142C612.4 142 612.667 140.4 612.267 132.933C611.6 122 609.734 119.467 604 121.6C601.734 122.4 600 122.533 600 121.867C600 120.533 597.734 120.4 594.934 121.6Z"
        fill="black" />
    <path
        d="M695.733 122C692.133 124.133 690.133 132.133 692 136.8C695.066 144 701.6 145.333 706.8 139.733L710 136.267L706.8 138.4C702 141.6 694.666 137.733 694.666 131.733C694.666 128.933 695.2 128.667 702 128.667C710 128.667 711.333 126.933 706.933 122.933C704.133 120.4 699.2 120 695.733 122ZM704 124.667C705.333 127.067 705.066 127.333 700 127.333C694.533 127.333 693.466 126.4 696.266 123.6C698.666 121.2 702.4 121.733 704 124.667Z"
        fill="black" />
    <path
        d="M713.733 122.667C714.8 123.733 717.333 128.8 719.467 134C721.467 139.2 723.6 142.933 724.133 142.4C724.667 141.867 726.4 138 728 134C729.6 130 731.733 125.333 732.8 123.6C734.533 120.933 734.533 120.667 732.133 120.667C730.4 120.667 729.733 121.333 730.133 122.4C730.533 123.467 729.467 127.2 727.867 130.8L725.067 137.333L722 130.8C720.267 127.2 719.2 123.467 719.6 122.533C720.133 121.2 719.067 120.667 716 120.667C712.267 120.667 712 120.933 713.733 122.667Z"
        fill="black" />
    <path
        d="M742.267 122.267C738.667 125.2 737.067 131.067 738.8 136.267C741.333 144 748.133 145.6 753.467 139.733L756.667 136.267L753.467 138.4C748.667 141.6 741.333 137.733 741.333 131.733C741.333 128.933 741.867 128.667 748.667 128.667C756.667 128.667 758 126.933 753.6 122.933C750.667 120.267 745.333 120 742.267 122.267ZM750.4 124.933C750.8 126.933 749.867 127.333 746.133 127.333C741.067 127.333 740.267 126.267 742.933 123.6C745.2 121.333 749.867 122.133 750.4 124.933Z"
        fill="black" />
    <path
        d="M778.933 121.6C776.533 122.533 773.333 129.2 773.333 133.333C773.333 138 778.933 143.333 783.733 143.333C791.6 143.333 796.667 133.733 792.8 126.267C790.133 121.067 784.667 119.2 778.933 121.6ZM788.933 126.933C791.867 134.133 790 141.2 785.067 141.733C782.267 142.133 781.067 141.333 779.467 138.133C775.467 130.4 777.467 122 783.467 122C786 122 787.2 123.067 788.933 126.933Z"
        fill="black" />
    <path
        d="M800.667 121.467C799.867 121.733 799.467 128.133 799.6 137.6C799.867 151.467 800.133 153.2 802.267 153.467C804.267 153.867 804.667 153.067 804.267 148.133L803.733 142.533L808.4 143.067C812.133 143.467 813.467 142.933 815.867 140C823.333 130.4 814.933 115.067 806.4 122.933C804.133 124.933 804 124.933 804 122.933C804 120.667 803.2 120.4 800.667 121.467ZM812.533 125.467C815.2 128.133 815.333 138.4 812.8 140.667C811.733 141.467 809.467 142 807.733 141.733C805.067 141.333 804.667 140.533 804.267 134C803.867 128.267 804.4 126.4 806.133 125.067C809.2 122.8 810 122.933 812.533 125.467Z"
        fill="black" />
    <path
        d="M824.267 121.6C822.934 122.133 822.934 122.667 824.134 124.133C825.067 125.333 825.467 129.2 825.067 134.4C824.667 142.133 824.8 142.933 826.934 142.267C828.934 141.733 829.334 140.133 829.334 131.2C829.334 120.667 828.934 119.733 824.267 121.6Z"
        fill="black" />
    <path
        d="M832.666 121.867C832.266 122.533 833.333 123.333 834.933 123.6C837.733 124 838 124.8 838.4 132.933C838.666 139.867 839.2 142 840.666 142C842.266 142 842.666 140.133 842.666 133.867C842.666 129.467 842 124.667 841.333 123.2C839.866 120.533 834.133 119.733 832.666 121.867Z"
        fill="black" />
    <path
        d="M846 121.867C845.6 122.533 846.667 123.333 848.267 123.6C851.067 124 851.333 124.8 851.733 132.933C852 139.867 852.533 142 854 142C855.6 142 856 140.133 856 133.867C856 129.467 855.333 124.667 854.667 123.2C853.2 120.533 847.467 119.733 846 121.867Z"
        fill="black" />
    <path
        d="M864.133 124.133C860.267 129.067 860.533 136 864.667 140C868.667 144.133 873.467 144.267 876.8 140.4C879.333 137.6 879.333 137.6 876.667 138.533C873.6 139.733 873.467 139.733 870.533 139.467C868.267 139.333 863.733 131.6 864.8 129.733C865.2 129.2 868.8 128.667 872.8 128.667C880.533 128.667 881.067 128.133 877.867 123.6C874.933 119.333 867.733 119.6 864.133 124.133ZM874.4 124.933C874.8 126.933 873.867 127.333 870.133 127.333C865.067 127.333 864.267 126.267 866.933 123.6C869.2 121.333 873.867 122.133 874.4 124.933Z"
        fill="black" />
    <path
        d="M884.667 122C883.2 122.667 882.8 123.2 883.734 123.2C884.8 123.333 885.334 126.133 885.334 132.667C885.334 140.133 885.734 142 887.334 142C888.934 142 889.334 140.267 889.334 134.133C889.334 125.867 891.2 122.667 895.6 123.6C897.6 124 898 125.467 898 133.067C898 140.667 898.4 142 900.4 142C902.267 142 902.667 140.667 902.667 133.867C902.667 129.467 902 124.667 901.334 123.2C899.6 120.133 895.067 119.867 891.734 122.933C889.467 124.933 889.334 124.933 889.334 122.933C889.334 120.4 888.667 120.267 884.667 122Z"
        fill="black" />
</svg>