<svg width="852" height="113" viewBox="0 0 852 113" fill="none" xmlns="http://www.w3.org/2000/svg">
    <path
        d="M47.0668 3.40008C44.9334 4.73341 40.6668 10.0667 37.4667 15.1334C32.2667 23.1334 31.6001 24.8667 32.5334 29.0001C33.3334 33.1334 34.0001 33.6667 37.4667 33.5334C39.6001 33.4001 42.6668 32.8667 44.4001 32.3334C46.8001 31.5334 47.2001 31.8001 46.5334 33.4001C46.1334 34.6001 43.4668 35.8001 40.5334 36.3334C34.5334 37.4001 33.0667 39.0001 35.3334 41.6667C36.6667 43.2667 36.6667 44.2001 35.2001 45.9334C34.2667 47.2667 33.3334 48.4667 33.2001 48.7334C33.2001 48.8667 30.8001 48.0667 28.1334 47.0001C23.4667 45.0001 22.8001 45.0001 16.9334 47.9334C11.2001 50.7334 10.6667 51.4001 10.6667 55.6667C10.6667 59.8001 10.1334 60.4667 6.00008 61.6667L1.33341 63.1334L0.933415 87.4001L0.666748 111.667H95.3334H190.133L189.733 107.267L189.333 103L173.333 102.333C164.533 101.8 158.133 101.4 159.067 101.267C163.467 100.6 166 95.6667 166 87.9334V80.3334L169.867 87.1334C174.133 94.6001 179.333 97.6667 185.067 96.3334L188.533 95.4001L185.067 90.2001C181.867 85.2667 177.867 83.0001 174.267 83.9334C173.467 84.2001 170.133 78.4667 166.8 71.4001C155.867 47.2667 151.467 44.2001 124.667 42.0667C115.467 41.4001 107.467 40.3334 106.8 39.6667C103.733 36.7334 108.267 35.6667 123.467 35.6667C140.267 35.6667 145.867 34.2001 148.533 29.1334C149.333 27.8001 152 26.2001 154.533 25.8001C157.2 25.2667 160.533 23.2667 162.267 21.1334C164.133 19.1334 167.467 17.0001 170 16.4667C174.8 15.5334 182 9.66674 182 6.73341C182 5.00008 180.933 4.86674 164 4.86674C159.2 4.86674 139.067 4.86674 119.2 4.86674L82.9334 5.00008L78.8001 9.53341L74.5334 13.9334L72.4001 10.3334C67.7334 2.06674 54.2668 -1.53326 47.0668 3.40008ZM54.8001 7.00008C53.3334 8.06674 50.6668 9.00008 48.8001 9.00008C45.4668 8.86674 45.4668 8.86674 47.8668 7.00008C49.3334 5.93341 52.0001 5.00008 53.8668 5.00008C57.2001 5.13341 57.2001 5.13341 54.8001 7.00008ZM62.0001 9.66674C62.0001 10.7334 60.8001 12.8667 59.3334 14.3334C57.8668 15.8001 56.6668 17.8001 56.6668 18.6001C56.6668 19.5334 55.7334 21.4001 54.8001 22.7334C53.6001 24.2001 53.2001 27.1334 53.6001 30.8667C54.2668 35.8001 53.8668 37.0001 51.2001 38.8667C48.0001 41.0001 38.0001 41.9334 38.0001 39.9334C38.0001 39.2667 39.7334 38.7334 41.8668 38.7334C46.8001 38.7334 50.2668 36.0667 49.7334 32.6001C49.0668 27.9334 45.3334 26.7334 40.5334 29.5334C37.0667 31.6667 36.4001 31.6667 37.0667 30.0667C37.4667 28.8667 37.0667 27.2667 36.2667 26.4667C34.0001 24.2001 39.0668 19.1334 41.6001 21.2667C42.9334 22.3334 43.8668 22.3334 44.8001 21.4001C45.8668 20.3334 45.4668 19.6667 43.4668 19.0001C41.8668 18.6001 40.6668 17.6667 40.6668 17.0001C40.6668 15.1334 45.3334 13.0001 49.6001 13.0001C51.6001 13.0001 54.8001 11.8001 56.6668 10.3334C60.6668 7.13341 62.0001 7.00008 62.0001 9.66674ZM146 8.46674C146 9.00008 144.933 10.2001 143.733 11.1334C142 12.4667 135.867 12.8667 121.2 13.0001C104.4 13.0001 100.8 13.4001 100.133 15.0001C99.4668 16.7334 101.733 17.0001 115.067 17.0001H130.533L127.867 19.6667C125.467 22.0667 123.2 22.4667 110.667 22.7334C100.533 22.8667 96.0001 23.5334 95.6001 24.6001C95.2001 25.9334 97.6001 26.3334 104.667 26.3334C111.733 26.3334 114.133 26.7334 113.733 27.9334C112.933 30.4667 105.067 32.8667 97.7334 32.8667C89.4668 33.0001 88.2668 35.4001 96.1334 35.9334C99.6001 36.2001 102.667 37.0001 102.933 37.8001C103.867 40.4667 99.3334 43.6667 96.0001 42.8667C94.4001 42.4667 92.5334 42.7334 92.1334 43.5334C90.8001 45.6667 97.8668 47.0001 102 45.4001C105.067 44.2001 131.067 45.2667 132 46.6001C138.8 56.7334 143.467 59.9334 153.733 61.6667C161.2 62.8667 162.133 65.5334 161.733 82.7334L161.333 96.2001L153.467 99.2667C144.8 102.6 143.333 102.333 143.333 97.6667C143.333 94.8667 144.267 94.0667 149.333 92.8667C155.067 91.4001 155.333 91.1334 155.333 86.4667C155.333 83.8001 154.8 80.8667 154.133 79.8001C153.467 78.8667 148 77.1334 141.867 76.0667C135.733 75.0001 127.067 72.4667 122.533 70.2001C112.667 65.5334 109.6 65.4001 95.3334 69.6667C89.2001 71.5334 81.8668 73.0001 79.0668 73.0001C74.6668 73.0001 73.7334 73.5334 72.5334 76.6001C71.7334 78.6001 71.3334 82.7334 71.4668 85.6667C71.8668 94.2001 70.2668 98.3334 66.5334 98.3334C64.6668 98.3334 61.7334 99.2667 60.0001 100.467C55.4668 103.4 52.4001 101.933 52.9334 97.4001C53.2001 94.6001 54.1334 93.5334 56.6668 93.2667C62.4001 92.4667 63.3334 90.6001 63.3334 80.3334C63.3334 71.1334 63.4668 70.6001 68.1334 65.8001C71.6001 62.3334 72.6668 60.2001 72.0001 58.3334C71.4668 56.4667 72.2668 54.3334 74.5334 51.5334C78.5334 46.8667 78.8001 43.5334 75.8668 38.3334C73.7334 34.8667 73.7334 34.0667 76.4001 24.2001C80.9334 7.26674 80.1334 7.66674 116.133 7.66674C132.533 7.66674 146 8.06674 146 8.46674ZM174.667 10.3334C172.533 12.6001 170.533 13.0001 159.6 13.0001C147.067 13.0001 146.933 13.0001 149.333 10.3334C151.467 8.06674 153.467 7.66674 164.4 7.66674C176.933 7.66674 177.067 7.66674 174.667 10.3334ZM72.2668 18.2001C72.6668 20.0667 72.1334 25.2667 71.0668 29.6667C69.0668 37.2667 69.0668 37.6667 71.4668 39.4001C76.5334 42.8667 73.6001 50.7334 66.5334 52.4667L63.3334 53.2667L66.1334 55.5334C69.6001 58.3334 68.5334 63.6667 64.6668 63.6667C63.3334 63.6667 61.7334 64.8667 61.3334 66.3334C60.4001 69.4001 57.0668 73.0001 55.2001 73.0001C54.5334 73.0001 54.0001 70.6001 54.0001 67.6667V62.3334L50.6668 64.4667C47.6001 66.4667 47.0668 66.4667 45.6001 64.6001C43.2001 61.6667 23.4667 57.1334 19.3334 58.6001C16.8001 59.5334 15.7334 59.2667 14.4001 57.5334C12.4001 54.7334 14.2667 51.6667 18.0001 51.6667C19.3334 51.6667 20.6667 51.0001 20.9334 50.0667C21.7334 47.6667 29.7334 51.2667 32.2667 55.2667C34.8001 59.1334 37.2001 59.2667 36.2667 55.4001C35.0667 51.2667 39.2001 45.0001 42.9334 45.0001C47.8668 45.0001 54.9334 41.5334 56.6668 38.3334C57.6001 36.6001 58.0001 33.1334 57.4668 30.3334C56.8001 25.9334 57.0668 25.2667 59.4668 24.6001C61.0668 24.2001 61.8668 23.2667 61.3334 22.3334C60.8001 21.5334 61.8668 18.2001 63.4668 14.8667L66.6668 8.86674L69.0668 11.8001C70.2668 13.4001 71.7334 16.2001 72.2668 18.2001ZM158.267 19.6667C155.2 22.2001 146.133 23.6667 136.4 23.2667C130.667 23.1334 130.8 23.2667 132.933 19.6667C134.4 17.2667 136.133 17.0001 148 17.0001C161.333 17.1334 161.333 17.1334 158.267 19.6667ZM144.4 27.9334C143.467 30.7334 135.333 32.8667 125.733 32.8667C120.667 33.0001 116.667 32.6001 116.667 32.2001C116.667 31.8001 117.333 30.3334 118 28.8667C119.2 26.6001 120.933 26.3334 132.133 26.3334C141.733 26.3334 144.8 26.7334 144.4 27.9334ZM149.2 51.4001C156 56.0667 157.2 59.1334 151.867 57.8001C146.4 56.4667 140.667 52.8667 138.267 49.2667C136.267 46.2001 136.267 46.2001 140.133 47.0001C142.267 47.5334 146.4 49.5334 149.2 51.4001ZM35.3334 64.3334L41.3334 65.8001L41.7334 82.0667C42.1334 100.6 42.8001 99.8001 30.0001 96.3334C23.6001 94.6001 21.8667 94.6001 16.1334 96.3334C4.00008 99.9334 4.53341 100.6 4.93341 82.0667L5.33341 65.8001L14.0001 63.5334C22.6667 61.4001 23.8667 61.4001 35.3334 64.3334ZM49.6001 73.8001C49.0668 77.1334 49.2001 77.2667 54.1334 76.4667L59.3334 75.6667V82.2001C59.3334 88.4667 59.0668 88.8667 55.3334 89.6667C50.6668 90.7334 48.1334 94.6001 49.0668 99.1334C49.4668 101.4 49.0668 102.333 47.4668 102.333C45.3334 102.333 45.2001 100.733 46.0001 72.6001C46.0001 71.4001 46.9334 70.3334 48.1334 70.3334C49.7334 70.3334 50.1334 71.2667 49.6001 73.8001ZM119.067 73.9334C120.4 76.0667 122.267 79.5334 123.2 81.9334C124.933 86.0667 124.8 86.4667 117.867 94.2001L110.667 102.333H102.4C95.0668 102.333 94.0001 102.067 94.0001 99.8001C94.0001 95.6667 97.3334 93.9334 103.2 95.0001C108 95.8001 108.933 95.5334 111.867 92.0667C116.133 87.4001 116.133 84.3334 112 77.6667C107.733 70.8667 107.867 70.3334 112.533 70.3334C115.333 70.3334 117.2 71.4001 119.067 73.9334ZM108.4 78.6001C112.133 85.2667 112.133 85.8001 110.133 88.7334C108.267 91.2667 107.2 91.6667 102.533 91.0001C96.0001 90.0667 91.4668 93.1334 91.0668 98.6001L90.8001 102.333H80.0001C74.1334 102.333 70.0001 101.8 70.9334 101.267C73.8668 99.4001 75.7334 92.3334 75.4668 84.6001C75.0668 77.1334 75.0668 77.0001 78.9334 76.8667C80.9334 76.8667 86.5334 75.6667 91.3334 74.3334C103.867 70.8667 104 70.8667 108.4 78.6001ZM142 79.6667C148.8 79.6667 151.333 81.1334 151.333 85.0001C151.333 88.0667 150.533 88.8667 146 90.2001C140.533 91.8001 138.133 95.8001 139.867 100.333C140.4 102.067 138.667 102.333 128.667 102.333C122 102.333 116.667 101.933 116.667 101.533C116.667 101 119.333 97.6667 122.667 94.2001C129.333 87.1334 129.6 86.0667 126.667 80.4667C125.6 78.4667 124.667 76.6001 124.667 76.3334C124.667 76.2001 127.733 76.8667 131.6 77.8001C135.467 78.8667 140.133 79.6667 142 79.6667ZM180.667 90.3334C181.467 91.8001 181.733 93.0001 181.333 93.0001C179.467 93.0001 175.333 90.2001 175.333 89.0001C175.333 86.6001 179.2 87.6667 180.667 90.3334ZM30.6667 100.2L37.3334 102.067H23.3334C10.0001 102.067 9.60008 102.067 14.6667 100.333C21.7334 98.0667 22.8001 98.0667 30.6667 100.2Z"
        fill="black" />
    <path
        d="M12.8001 70.1999C10.9334 70.7333 9.20006 71.9333 8.93339 72.8666C8.40006 74.3333 9.46672 74.4666 13.4667 73.6666C19.4667 72.5999 20.6667 72.0666 20.6667 70.1999C20.6667 68.8666 17.6001 68.8666 12.8001 70.1999Z"
        fill="black" />
    <path
        d="M26.1334 70.8666C28.5334 73.5333 38 75.3999 38 73.2666C38 71.2666 36.5334 70.5999 29.8667 69.5333C24.4 68.7333 24.1334 68.8666 26.1334 70.8666Z"
        fill="black" />
    <path
        d="M12.8001 78.1999C8.66674 79.2666 7.46674 82.3333 11.2001 82.3333C14.9334 82.3333 20.6667 79.9333 20.6667 78.3333C20.6667 76.8666 17.7334 76.7333 12.8001 78.1999Z"
        fill="black" />
    <path
        d="M24.6667 78.2001C24.6667 80.0667 26.2667 80.7334 32.4001 81.8001C39.6001 82.8667 40.0001 80.3334 33.0667 78.4667C26.8001 76.7334 24.6667 76.6001 24.6667 78.2001Z"
        fill="black" />
    <path
        d="M12.4001 86.5999C8.53339 87.9333 7.33339 90.3333 10.5334 90.3333C15.3334 90.3333 20.6667 88.4666 20.6667 86.8666C20.6667 84.7333 17.6001 84.5999 12.4001 86.5999Z"
        fill="black" />
    <path
        d="M24.9333 86.6C25.4666 88.2 36.1333 91.8 37.3333 90.6C38.9333 89 37.7333 87.6667 33.0666 86.4667C26.5333 84.6 24.2666 84.6 24.9333 86.6Z"
        fill="black" />
    <path
        d="M688.8 3.93341C688.267 5.66674 683.734 18.3334 678.934 32.3334C653.067 107.267 654.4 103.933 650.134 106.333C644.4 109.267 643.334 107 643.334 91.8001C643.2 69.1334 640.534 62.6001 629.6 59.4001L624.4 57.8001L629.6 55.2667C640.667 49.6667 647.334 40.0667 647.334 29.6667C647.334 18.2001 640.8 9.26674 630.267 6.46674C627.6 5.66674 611.6 5.00008 594.667 4.73341C566.667 4.46674 564 4.60008 563.6 6.73341C563.2 8.60008 564.267 9.00008 569.867 9.00008H576.667V58.3334V107.667H570C564.933 107.667 563.333 108.2 563.333 109.667C563.333 111.4 566.667 111.667 585.333 111.667C604 111.667 607.333 111.4 607.333 109.667C607.333 108.2 605.733 107.667 600.667 107.667H594V83.5334V59.4001L606 59.9334C616.8 60.4667 618.533 60.8667 621.467 63.9334C625.733 68.0667 627.2 74.7334 627.333 88.7334C627.333 108.867 631.067 111.667 657.867 111.667C672.8 111.667 675.2 111.4 674.534 109.667C674 108.6 672.134 107.267 670.134 106.867C662.4 105 661.734 101.667 666.267 87.4001L669.2 78.3334H687.334H705.6L710.4 90.6001C713.067 97.4001 715.6 104.067 716.134 105.267C716.8 107.4 716.134 107.667 710.8 107.667C706.267 107.667 704.667 108.2 704.667 109.667C704.667 111.4 710.934 111.667 753.334 111.667H802V92.3334C802 76.8667 801.6 73.0001 800.134 73.0001C799.067 73.0001 798 75.1334 797.467 78.3334C794.4 98.0667 787.2 105.933 771.734 106.6L764 107L763.6 57.9334L763.334 9.00008H770C775.467 9.00008 776.667 8.60008 776.667 6.60008C776.667 4.46674 774.934 4.33341 755.067 4.73341C737.067 5.00008 733.2 5.40008 732.934 7.00008C732.534 8.60008 733.867 9.00008 739.2 9.00008H746V58.4667V107.8L740.534 107.4L735.067 107L715.867 55.6667C705.2 27.4001 696.267 3.53341 696 2.60008C695.067 -0.199924 690 0.733409 688.8 3.93341ZM620.533 10.7334C626.4 13.6667 628.933 18.7334 629.733 28.7334C630.267 36.6001 629.867 39.1334 627.333 44.2001C623.333 52.6001 619.467 54.3334 605.333 54.3334H594V31.6667V9.00008H605.733C612.267 9.00008 618.667 9.80008 620.533 10.7334ZM696.534 51.2667L704.267 73.0001H688.4C679.734 73.0001 672.667 72.4667 672.667 71.9334C672.667 71.0001 685.2 33.1334 686.8 29.0001C687.334 27.9334 687.867 27.5334 688.134 28.3334C688.534 29.0001 692.267 39.4001 696.534 51.2667Z"
        fill="black" />
    <path
        d="M237.333 5.39991C222.533 11.2666 214.667 20.7332 209.2 38.9999C204.933 53.7999 207.067 76.8666 214 90.1999C218 97.9333 225.2 105.4 232.133 109C237.467 111.8 240.533 112.333 249.467 112.333C259.333 112.333 260.667 112.067 265.467 108.333C268.267 106.2 270.933 103.933 271.067 103.4C272 101.4 274.267 102.333 280.133 107.133L286 111.933V86.4666V60.9999H292C297.067 60.9999 298 60.5999 298 58.3332C298 55.7999 297.067 55.6666 276.533 55.6666C256.933 55.6666 255.2 55.7999 255.6 57.9332C255.867 59.7999 257.6 60.4666 263.067 60.7332L270 61.1332V79.5333V98.0666L265.333 102.2C253.733 112.333 237.867 109.8 231.333 96.8666C227.067 88.5999 224.667 75.2666 224.667 59.6666C224.667 19.7999 236 2.19991 257.6 8.33325C268.667 11.5332 275.733 20.5999 282.667 40.5999C282.933 41.5332 283.867 42.3332 284.667 42.3332C285.467 42.3332 286 35.3999 286 22.9999C286 12.3332 285.733 3.66658 285.333 3.66658C284.933 3.66658 282.133 5.39991 279.2 7.66658C273.733 11.5332 273.6 11.5332 270.133 9.13325C268.267 7.79991 264.667 6.06658 262.133 5.26658C256.4 3.26658 242.533 3.39991 237.333 5.39991Z"
        fill="black" />
    <path
        d="M314.4 4.73341C302.267 5.00008 299.333 5.40008 299.333 7.00008C299.333 8.46674 301.067 9.00008 306 9.00008H312.667V58.3334V107.667H305.333C299.733 107.667 298 108.067 298 109.667C298 111.4 303.2 111.667 336.667 111.667H375.333V92.2001C375.333 77.9334 374.933 72.8667 373.733 73.2667C372.933 73.5334 371.467 77.5334 370.533 82.0667C369.6 86.7334 367.467 92.8667 365.733 95.9334C361.2 104.2 356.4 106.467 341.333 107.267L328.667 108.067V83.8001V59.6667H333.2C343.067 59.6667 347.733 63.9334 350.667 75.4001C351.6 78.7334 352.933 81.8001 353.733 82.0667C354.933 82.4667 355.333 75.8001 355.333 57.6667C355.333 38.7334 354.933 32.8667 353.733 33.2667C352.8 33.6667 351.6 36.0667 351.067 38.7334C349.067 48.6001 342.267 54.3334 332.667 54.3334H328.667V31.5334V8.60008L341.333 9.40008C360.267 10.4667 366.8 15.5334 370 31.4001C372.267 41.9334 372.533 42.6001 374 41.6667C374.8 41.1334 375.333 33.5334 375.333 22.8667V5.00008H354.133C342.4 5.00008 332.133 4.86674 331.067 4.60008C330.133 4.46674 322.533 4.46674 314.4 4.73341Z"
        fill="black" />
    <path
        d="M382.533 4.86674C380.4 7.00008 382.8 8.73341 388.666 9.26674C401.2 10.4667 400.666 8.46674 400.666 57.6667C400.666 100.467 400.666 100.6 397.733 103.267C396 104.733 392.4 106.733 389.733 107.533C380 110.733 382.933 111.667 402.533 111.667C422.666 111.667 427.066 110.333 416 107.533C404.8 104.733 404.666 104.467 404.666 64.2001C404.666 44.8667 405.066 29.0001 405.733 29.0001C406.266 29.0001 419.6 47.5334 435.333 70.2001C451.066 93.0001 464.666 111.4 465.333 111.133C466.133 110.867 466.8 93.8001 467.066 64.2001C467.2 38.6001 467.6 16.3334 468 14.7334C468.933 10.8667 476.266 8.60008 486 9.26674L493.333 9.66674V58.3334V107L486.4 107.4C481.333 107.667 479.333 108.333 479.333 109.8C479.333 111.4 485.2 111.667 518 111.667H556.666V92.3334C556.666 77.1334 556.266 73.0001 554.933 73.0001C553.733 73.0001 552.533 76.0667 551.6 81.2667C548 100.6 541.6 106.2 521.866 107.4L510 108.067V83.8001V59.6667H514.666C524 59.6667 528.266 63.6667 531.866 75.5334C532.8 78.8667 534.266 81.8001 535.066 82.0667C536.266 82.4667 536.666 75.9334 536.666 57.6667C536.666 39.4001 536.266 32.8667 535.066 33.2667C534.266 33.5334 532.8 36.4667 531.866 39.8001C529.466 48.0667 523.733 53.1334 516.133 53.9334L510 54.7334V31.6667V8.60008L522.666 9.40008C531.466 9.93341 536.666 10.8667 539.733 12.6001C544.933 15.5334 550.933 26.7334 552.133 35.8001C553.733 48.2001 555.333 42.2001 555.333 23.2667V4.33341L501.066 4.60008C454.933 4.73341 446.666 5.13341 446.266 6.73341C446 8.06674 447.6 8.86674 451.466 9.40008C462.133 10.8667 462.133 10.7334 461.733 47.4001L461.333 79.8001L437.333 44.3334C424.133 24.7334 412.666 7.93341 412 6.86674C410.933 5.40008 407.066 4.86674 396.933 4.60008C389.333 4.46674 382.933 4.60008 382.533 4.86674Z"
        fill="black" />
    <path
        d="M807.867 4.86675C807.6 5.13342 807.333 6.20009 807.333 7.26675C807.333 8.46675 809.333 9.00009 814 9.00009H820.667V58.3334V107.667H814C808.933 107.667 807.333 108.2 807.333 109.667C807.333 111.4 810.667 111.667 829.333 111.667C847.6 111.667 851.333 111.4 851.333 109.8C851.333 108.333 849.333 107.667 844.4 107.4L837.333 107V58.3334V9.66675L844.4 9.26675C849.333 9.00009 851.333 8.33342 851.333 6.86675C851.333 5.93342 850.533 5.00009 849.733 4.86675C842.533 4.46675 808.267 4.46675 807.867 4.86675Z"
        fill="black" />
</svg>