<?xml version="1.0" encoding="utf-8"?>
<!-- Generator: Adobe Illustrator 19.2.1, SVG Export Plug-In . SVG Version: 6.00 Build 0)  -->
<svg version="1.1" id="layer" xmlns="http://www.w3.org/2000/svg"
	xmlns:xlink="http://www.w3.org/1999/xlink" x="0px" y="0px"
	viewBox="0 0 652 652" style="enable-background:new 0 0 652 652;" xml:space="preserve">
<style type="text/css">
	.st0{fill:#000000;}
</style>
<path class="st0" d="M153,71.5L114.4,171L75.8,71.5H28.4v159.1h33.8V115.9L107,230.6h14.8l44.8-114.7v114.7h34.1V71.5H153L153,71.5z
	 M565.2,264.4l-38.6,99.5L488,264.4h-47.4v159.1h33.8V308.8l44.8,114.7H534l44.8-114.7v114.7h34.1V264.4H565.2L565.2,264.4z
	 M77.2,411.9l-15.1,38.9L47,411.9H28.5v62.2h13.2v-44.9l17.5,44.9H65l17.5-44.9v44.9h13.3v-62.2H77.2L77.2,411.9z"/>
<g>
	<g transform="matrix(1.25 0 0 -1.25 -67.39 302.91)">
		<path class="st0" d="M179.2-112.1c0,9.3-5.9,16.3-15.1,16.3c-9.3,0-15.1-7-15.1-16.3c0-9.3,5.9-16.3,15.1-16.3
			C173.3-128.5,179.2-121.4,179.2-112.1 M138.1-112.1c0,15,11,25.7,26,25.7c15,0,26-10.7,26-25.7c0-15-11-25.7-26-25.7
			C149-137.8,138.1-127.1,138.1-112.1 M206.9-137v40.4h-14.5v9.3h39.7v-9.3h-14.5V-137L206.9-137L206.9-137z M252.4-137v40.4h-14.5
			v9.3h39.7v-9.3h-14.5V-137L252.4-137L252.4-137z M120-214v35.9l-14-35.9h-4.6l-14,35.9V-214H76.7v49.8h14.8l12.1-31.1l12.1,31.1
			h14.9V-214L120-214L120-214z M162-174.8l-7.8-21.4h15.5C169.8-196.2,162-174.8,162-174.8z M175.8-214l-3.1,8.4h-21.3l-3.1-8.4h-12
			l19.2,49.8h13.3l19.2-49.8L175.8-214L175.8-214z M188-189.1c0,15.4,11.6,25.7,26.6,25.7c10.9,0,17.2-5.9,20.7-12.2l-9.1-4.5
			c-2.1,4-6.6,7.2-11.6,7.2c-9.1,0-15.7-6.9-15.7-16.3c0-9.4,6.6-16.3,15.7-16.3c5.1,0,9.5,3.2,11.6,7.2l9.1-4.4
			c-3.5-6.2-9.8-12.2-20.7-12.2C199.6-214.9,188-204.4,188-189.1 M277.7-189.1c0,8.7-5.4,15.5-15.5,15.5l-9.1,0v-31.1h9
			C271.9-204.7,277.7-197.6,277.7-189.1 M242.4-214v49.8h19.6c15.6,0,26.4-9.9,26.4-24.8c0-15.1-10.8-24.9-26.3-24.9L242.4-214
			L242.4-214z M335.3-189.1c0,9.3-5.9,16.3-15.1,16.3c-9.3,0-15.1-7-15.1-16.3c0-9.3,5.9-16.3,15.1-16.3
			C329.4-205.5,335.3-198.4,335.3-189.1 M294.1-189.1c0,15,11,25.7,26,25.7c15,0,26-10.7,26-25.7c0-15-11-25.7-26-25.7
			C305.1-214.9,294.1-204.1,294.1-189.1 M387.7-214L364-181.5V-214h-10.6v49.8h10.9l23.1-31.3v31.3h10.6V-214L387.7-214L387.7-214z
			 M429.4-174.8l-7.8-21.4h15.5L429.4-174.8L429.4-174.8z M443.2-214l-3.1,8.4h-21.3l-3.1-8.4h-12l19.2,49.8h13.3l19.2-49.8
			L443.2-214L443.2-214z M461-214v49.8h10.7v-40.4h21v-9.3H461L461-214z M533.7-189.1c0,8.7-5.4,15.5-15.5,15.5l-9.1,0v-31.1h9
			C528-204.7,533.7-197.6,533.7-189.1 M498.5-214v49.8h19.6c15.6,0,26.4-9.9,26.4-24.8c0-15.1-10.8-24.9-26.3-24.9L498.5-214
			L498.5-214z"/>
	</g>
</g>
</svg>