<svg xmlns="http://www.w3.org/2000/svg" viewBox="0 0 450.17 77.85">
    <title>MM-Logo-Horizontal-Black-rgb</title>
    <g id="logo">
        <path
            d="M58.9,62.83V41.09L50.4,62.83H47.6L39.1,41.09V62.83H32.68V32.68h9L49,51.53l7.32-18.85h9V62.83Zm11-15c0-9.09,6.64-15.6,15.77-15.6s15.73,6.51,15.73,15.6S94.74,63.37,85.65,63.37,69.88,56.86,69.88,47.78Zm24.9,0c0-5.65-3.57-9.9-9.13-9.9s-9.17,4.25-9.17,9.9,3.57,9.9,9.17,9.9S94.78,53.38,94.78,47.78Zm16.81,15V38.33h-8.81V32.68h24v5.65h-8.77v24.5Zm27.57,0V38.33h-8.81V32.68H154.4v5.65h-8.77v24.5ZM58.9,109.49V87.75l-8.5,21.74H47.6L39.1,87.75v21.74H32.68V79.34h9L49,98.19l7.32-18.85h9v30.15Zm33.88,0-1.9-5.11H78l-1.9,5.11H68.78L80.4,79.34h8l11.62,30.15ZM84.42,85.76l-4.7,13h9.4Zm15.73,8.68c0-9.31,7-15.6,16.09-15.6a13.68,13.68,0,0,1,12.56,7.37l-5.51,2.71a8.16,8.16,0,0,0-7.05-4.38c-5.52,0-9.49,4.2-9.49,9.9s4,9.9,9.49,9.9a8.17,8.17,0,0,0,7.05-4.39l5.51,2.67A13.8,13.8,0,0,1,116.24,110C107.15,110,100.15,103.7,100.15,94.44Zm33,15V79.34H145c9.45,0,16,6,16,15s-6.55,15.1-16,15.1Zm21.34-15.1c0-5.29-3.26-9.4-9.41-9.4h-5.51v18.85H145C151,103.84,154.48,99.55,154.48,94.39Zm10,0c0-9.09,6.65-15.6,15.78-15.6S196,85.35,196,94.44,189.32,110,180.24,110,164.46,103.52,164.46,94.44Zm24.91,0c0-5.65-3.57-9.9-9.13-9.9s-9.18,4.25-9.18,9.9,3.57,9.9,9.18,9.9S189.37,100,189.37,94.44Zm31.77,15L206.77,89.83v19.66h-6.42V79.34H207l14,18.94V79.34h6.42v30.15Zm33.63,0-1.9-5.11H239.94l-1.9,5.11h-7.28l11.62-30.15h8.05L262,109.49ZM246.4,85.76l-4.7,13h9.4Zm19.12,23.73V79.34H272v24.5h12.75v5.65Zm22.74,0V79.34h11.88c9.45,0,16,6,16,15s-6.55,15.1-15.95,15.1Zm21.33-15.1c0-5.29-3.25-9.4-9.4-9.4h-5.52v18.85h5.47C306.11,103.84,309.59,99.55,309.59,94.39Z"
            transform="translate(-32.68 -32.18)" />
        <path
            d="M393.09,32.68V68.21h-7.61V42.59l-10,25.62h-3.29l-10-25.62V68.21h-7.55V32.68H365.2l8.62,22.21,8.62-22.21ZM472.21,74l-8.62,22.21L455,74H444.38v35.53h7.56V83.87l10,25.62h3.3l10-25.62v25.62h7.61V74Z"
            transform="translate(-32.68 -32.18)" />
    </g>
</svg>