
<!DOCTYPE svg PUBLIC "-//W3C//DTD SVG 20010904//EN" "http://www.w3.org/TR/2001/REC-SVG-20010904/DTD/svg10.dtd">
<svg version="1.0" xmlns="http://www.w3.org/2000/svg"
    width="748.000000pt" height="246.000000pt" viewBox="0 0 748.000000 246.000000"
    preserveAspectRatio="xMidYMid meet">

    <g transform="translate(0.000000,246.000000) scale(0.100000,-0.100000)"
        fill="#000000" stroke="none">
        <path
            d="M0 1745 l0 -715 105 0 105 0 0 279 0 279 273 4 c249 4 277 6 331 26
128 48 216 126 258 230 20 49 23 75 23 182 0 115 -2 130 -27 182 -54 115 -164
201 -299 233 -51 12 -137 15 -416 15 l-353 0 0 -715z m724 511 c62 -19 111
-57 138 -109 18 -34 23 -58 23 -123 0 -73 -3 -86 -30 -130 -22 -35 -46 -57
-85 -79 l-55 -30 -252 -3 -253 -4 0 246 0 246 233 0 c173 0 246 -4 281 -14z" />
        <path
            d="M2076 2443 c-3 -10 -91 -324 -196 -698 -105 -374 -193 -688 -196
-697 -5 -16 2 -18 50 -18 53 0 55 1 65 33 16 51 391 1386 391 1392 0 3 -24 5
-54 5 -43 0 -56 -4 -60 -17z" />
        <path
            d="M3050 1745 l0 -715 105 0 105 0 0 286 0 286 243 -4 c267 -3 272 -4
302 -67 10 -20 48 -126 85 -236 38 -110 74 -215 80 -232 l12 -33 109 0 c60 0
109 3 109 8 0 25 -203 608 -217 625 -10 11 -31 25 -47 32 l-30 13 40 20 c92
48 167 163 184 283 29 204 -97 378 -315 434 -48 12 -128 15 -412 15 l-353 0 0
-715z m755 494 c71 -36 108 -92 113 -172 5 -82 -10 -134 -54 -185 -70 -83 -86
-87 -361 -90 l-243 -3 0 241 0 241 248 -3 c243 -3 249 -3 297 -29z" />
        <path
            d="M5347 2453 c-7 -12 -397 -1400 -397 -1412 0 -7 22 -11 53 -11 l52 0
198 703 c109 386 197 708 197 715 0 13 -95 18 -103 5z" />
        <path
            d="M6270 1745 l0 -715 105 0 105 0 0 218 0 217 123 123 c67 67 125 122
129 122 4 0 113 -153 243 -340 l237 -340 129 0 c71 0 129 2 129 5 0 3 -131
192 -291 420 l-291 415 285 292 285 293 -130 3 -130 3 -356 -350 -357 -349 -3
349 -2 349 -105 0 -105 0 0 -715z" />
        <path d="M2597 373 c-12 -11 -8 -43 6 -43 6 0 26 11 42 25 l30 24 -36 1 c-20
0 -39 -3 -42 -7z" />
        <path d="M3676 364 c-16 -42 9 -46 51 -9 l28 24 -36 1 c-25 0 -39 -5 -43 -16z" />
        <path
            d="M6590 360 c-16 -31 13 -37 50 -10 16 12 30 23 30 26 0 2 -16 4 -35 4
-24 0 -37 -6 -45 -20z" />
        <path d="M6945 354 c38 -30 76 -30 111 0 l28 23 -84 0 -84 0 29 -23z" />
        <path
            d="M476 159 c-31 -78 -56 -146 -56 -150 0 -5 13 -9 29 -9 25 0 31 6 41
35 11 35 12 35 71 35 59 0 60 -1 75 -35 12 -29 19 -35 45 -35 26 0 30 3 24 18
-4 9 -27 71 -52 137 -25 66 -50 126 -56 133 -5 6 -22 12 -37 12 -27 0 -31 -7
-84 -141z m118 -17 c7 -20 4 -22 -29 -22 -34 0 -37 2 -31 25 3 13 11 37 17 52
l11 28 13 -31 c7 -17 16 -40 19 -52z" />
        <path
            d="M875 288 c-3 -8 -4 -75 -3 -149 l3 -134 60 -3 c114 -6 177 34 190
122 9 60 -21 128 -67 152 -45 23 -176 32 -183 12z m155 -58 c43 -23 48 -126 7
-155 -12 -8 -41 -15 -64 -15 l-43 0 0 90 0 90 41 0 c22 0 49 -4 59 -10z" />
        <path
            d="M1210 293 c0 -5 24 -71 53 -148 l54 -140 39 0 39 0 52 140 c28 77 52
144 52 148 1 5 -13 7 -30 5 -31 -3 -33 -7 -72 -117 l-40 -113 -42 113 c-41
110 -44 114 -74 117 -17 2 -31 -1 -31 -5z" />
        <path
            d="M1729 291 c-51 -16 -71 -34 -91 -78 -53 -119 38 -233 167 -209 74 14
123 87 112 168 -7 54 -31 86 -80 109 -45 20 -67 22 -108 10z m91 -61 c42 -23
48 -121 8 -157 -30 -27 -95 -24 -119 6 -27 33 -26 114 1 141 22 22 78 27 110
10z" />
        <path
            d="M2087 293 c-4 -3 -7 -71 -7 -150 l0 -143 30 0 c29 0 30 2 30 43 1 40
18 77 36 77 5 0 26 -27 48 -60 34 -54 42 -60 72 -60 19 0 34 2 34 5 0 3 -25
42 -55 87 l-54 82 57 60 57 61 -35 3 c-32 4 -40 -2 -97 -64 l-63 -68 0 67 c0
64 -1 67 -23 67 -13 0 -27 -3 -30 -7z" />
        <path
            d="M2517 156 c-32 -79 -57 -147 -57 -150 0 -3 13 -6 29 -6 25 0 32 6 42
35 13 35 13 35 75 35 60 0 61 0 70 -32 8 -27 15 -34 42 -36 18 -2 32 -1 32 2
0 2 -16 46 -36 98 -20 51 -45 117 -56 146 -18 48 -22 52 -52 52 l-33 0 -56
-144z m117 -13 c7 -21 4 -23 -28 -23 -41 0 -42 4 -19 62 l17 42 12 -29 c6 -17
15 -40 18 -52z" />
        <path
            d="M2837 294 c-4 -4 -7 -18 -7 -31 0 -21 4 -23 50 -23 l50 0 0 -120 0
-120 30 0 30 0 0 119 0 120 48 3 c43 3 47 5 47 28 l0 25 -121 3 c-66 1 -123
-1 -127 -4z" />
        <path
            d="M3210 151 l0 -151 30 0 30 0 0 103 1 102 55 -102 56 -103 39 0 39 0
0 150 0 150 -30 0 -29 0 -3 -102 -3 -103 -55 100 c-53 97 -56 100 -92 103
l-38 3 0 -150z" />
        <path
            d="M3667 293 c-4 -3 -7 -69 -7 -145 l0 -138 25 0 25 0 0 145 c0 134 -1
145 -18 145 -10 0 -22 -3 -25 -7z" />
        <path
            d="M4087 293 c-4 -3 -7 -69 -7 -145 l0 -138 30 0 c28 0 30 3 30 38 1 36
18 72 36 72 5 0 25 -25 44 -55 32 -51 38 -55 73 -55 l37 0 -55 82 -54 82 57
60 57 61 -35 3 c-32 4 -40 -2 -97 -64 l-63 -68 0 67 c0 64 -1 67 -23 67 -13 0
-27 -3 -30 -7z" />
        <path
            d="M4541 218 c-18 -46 -44 -111 -57 -145 l-24 -63 31 0 c25 0 33 6 42
30 11 29 14 30 73 30 61 0 63 -1 69 -30 6 -26 11 -30 41 -30 l34 0 -19 48
c-10 26 -35 91 -56 145 -36 95 -38 97 -69 97 -32 0 -34 -3 -65 -82z m93 -75
c7 -21 4 -23 -28 -23 -41 0 -42 4 -19 62 l17 42 12 -29 c6 -17 15 -40 18 -52z" />
        <path
            d="M4877 293 c-4 -3 -7 -69 -7 -145 l0 -138 35 0 34 0 3 91 3 90 49 -90
49 -91 44 0 44 0 -3 143 -3 142 -30 0 -30 0 -5 -94 -5 -94 -53 97 c-51 91 -55
96 -86 96 -18 0 -36 -3 -39 -7z" />
        <path
            d="M5364 281 c-67 -30 -94 -123 -60 -205 21 -50 50 -66 124 -66 55 0 66
3 87 26 35 38 33 64 -5 64 -20 0 -30 -5 -30 -15 0 -20 -44 -37 -76 -29 -35 9
-54 42 -54 94 0 59 26 90 75 90 26 0 39 -6 51 -25 19 -30 64 -35 64 -7 0 28
-30 63 -66 78 -43 18 -61 17 -110 -5z" />
        <path
            d="M5710 155 l0 -145 106 0 c104 0 105 0 102 23 -3 20 -9 22 -80 25
l-78 3 0 29 0 30 65 0 65 0 0 30 0 30 -65 0 -65 0 0 30 0 29 78 3 c75 3 77 4
77 28 0 25 -1 25 -102 28 l-103 3 0 -146z" />
        <path
            d="M6127 293 c-4 -3 -7 -69 -7 -145 l0 -138 111 0 c109 0 110 0 107 23
-3 20 -9 22 -80 25 l-78 3 0 119 c0 119 0 120 -23 120 -13 0 -27 -3 -30 -7z" />
        <path
            d="M6541 218 c-18 -46 -44 -111 -57 -145 l-24 -63 31 0 c25 0 33 6 42
30 11 29 14 30 73 30 61 0 63 -1 69 -30 6 -26 11 -30 41 -30 l34 0 -19 48
c-10 26 -35 91 -56 145 -36 95 -38 97 -69 97 -32 0 -34 -3 -65 -82z m93 -75
c7 -21 4 -23 -28 -23 -41 0 -42 4 -19 62 l17 42 12 -29 c6 -17 15 -40 18 -52z" />
        <path
            d="M6878 294 c-5 -4 -8 -70 -8 -146 l0 -138 35 0 35 0 0 51 0 50 42 -3
c40 -3 43 -5 59 -48 14 -39 21 -45 48 -48 17 -2 31 1 31 6 0 14 -32 106 -40
115 -5 5 1 18 11 28 28 28 25 80 -7 110 -22 21 -37 24 -112 27 -48 2 -90 0
-94 -4z m160 -66 c33 -33 -3 -68 -69 -68 -27 0 -29 2 -29 40 l0 40 43 0 c24 0
48 -5 55 -12z" />
    </g>
</svg>