<svg width="180" height="69" xmlns="http://www.w3.org/2000/svg"
    xmlns:xlink="http://www.w3.org/1999/xlink">
    <defs>
        <path id="a" d="M0 .025h26.467v34.413H0z" />
        <path id="c" d="M.476.025h28.986v34.413H.476z" />
        <path id="e" d="M.12.025h27.84v34.463H.12z" />
        <path id="g" d="M.297.025h12.29v34.412H.296z" />
        <path id="i" d="M.67.025h12.286v34.412H.67z" />
        <path id="k" d="M0 69h179V0H0z" />
    </defs>
    <g fill="none" fill-rule="evenodd">
        <mask id="b" fill="#fff">
            <use xlink:href="#a" />
        </mask>
        <path
            d="M0 .025h15.015c6.616 0 11.452 3.786 11.452 10.423 0 6.636-4.836 10.421-11.452 10.421H5.089v13.569H0V.025zm14.252 16.42c4.58 0 7.125-2.065 7.125-5.997 0-3.933-2.545-5.998-7.125-5.998H5.09v11.994h9.163z"
            fill="#FFF" mask="url(#b)" />
        <g transform="translate(150)">
            <mask id="d" fill="#fff">
                <use xlink:href="#c" />
            </mask>
            <path fill="#FFF" mask="url(#d)"
                d="M11.57 17.723l-6.096 6.096v10.619H.476V.025h4.998v17.059L22.715.025h6.497L15.17 14.085l14.294 20.353h-6.249z" />
        </g>
        <g transform="translate(73)">
            <mask id="f" fill="#fff">
                <use xlink:href="#e" />
            </mask>
            <path
                d="M23.323 20.631c-.466-1.39-1.329-2.349-2.942-2.527l.045-.037c3.26-.983 5.767-4.277 5.767-8.702 0-5.407-4.513-9.34-11.03-9.34H.118v34.413h5.014V20.672h9.353c3.235.002 3.536.32 4.574 3.362 1.112 3.264 3.569 10.454 3.569 10.454h5.331s-3.132-9.37-4.637-13.857zM5.133 4.45h9.277c4.261 0 6.77 1.966 6.77 5.653 0 3.441-2.509 6.145-6.77 6.145H5.133V4.45z"
                fill="#FFF" mask="url(#f)" />
        </g>
        <g transform="translate(40)">
            <mask id="h" fill="#fff">
                <use xlink:href="#g" />
            </mask>
            <path fill="#FFF" mask="url(#h)" d="M2.884 34.437L12.586.025H10L.297 34.437z" />
        </g>
        <g transform="translate(118)">
            <mask id="j" fill="#fff">
                <use xlink:href="#i" />
            </mask>
            <path fill="#FFF" mask="url(#j)" d="M3.256 34.437l9.7-34.412H10.37L.67 34.437z" />
        </g>
        <path
            d="M14.954 67.35h-2.918L11.41 69H10l2.75-7h1.57L17 69h-1.42l-.626-1.65zm-.457-1.2l-1.003-2.65-1.003 2.65h2.006zM21 62h2.42c2.117 0 3.58 1.2 3.58 3.5S25.588 69 23.47 69H21v-7zm2.319 5.8c1.361 0 2.32-.55 2.32-2.3 0-1.75-.959-2.3-2.32-2.3h-.957v4.6h.957zM36 62l-2.602 7h-1.737L29 62h1.499l2.055 5.58L34.53 62zm3 3.5c0-2.188 1.44-3.5 3.5-3.5 2.058 0 3.5 1.312 3.5 3.5 0 2.188-1.442 3.5-3.5 3.5-2.06 0-3.5-1.312-3.5-3.5zm3.552 2.334c1.285 0 2.058-.875 2.058-2.334s-.773-2.333-2.058-2.333h-.104c-1.286 0-2.059.874-2.059 2.333s.773 2.334 2.059 2.334h.104zm9.7-1.914l-.913.97V69H50v-7h1.34v3.14L54.283 62h1.657l-2.727 2.9L56 69h-1.656zm11.702 1.43h-2.918L60.409 69H59l2.75-7h1.57L66 69h-1.42l-.626-1.65zm-.457-1.2l-1.003-2.65-1.003 2.65h2.006zm6.845-2.951H68V62h6v1.199h-2.351V69h-1.307zM83 62v7h-1.795l-2.82-5.15V69H77v-7h1.795l2.82 5.13V62z"
            fill="#FFF" />
        <mask id="l" fill="#fff">
            <use xlink:href="#k" />
        </mask>
        <path fill="#FFF" mask="url(#l)"
            d="M88 69h1v-7h-1zm12.252-3.08l-.913.97V69H98v-7h1.34v3.14l2.944-3.14h1.658l-2.728 2.9L104 69h-1.656zm11.703 1.43h-2.919L108.41 69H107l2.75-7h1.57l2.68 7h-1.42l-.625-1.65zm-.457-1.2l-1.003-2.65-1.003 2.65h2.006zM123 62v7h-1.795l-2.82-5.15V69H117v-7h1.795l2.82 5.13V62zm4 3.5c0-2.09 1.145-3.5 3.195-3.5 1.765 0 2.71 1.05 2.805 2.334h-1.288c-.152-.739-.657-1.167-1.469-1.167h-.094c-1.097 0-1.86.874-1.86 2.333s.763 2.334 1.86 2.334h.094c.812 0 1.317-.408 1.47-1.168H133C132.905 68 131.96 69 130.195 69c-2.05 0-3.195-1.41-3.195-3.5m15 2.3V69h-5v-7h4.907v1.2h-3.657v1.61h3.102v1.2h-3.102v1.79zm5-5.8h1.274v5.8H152V69h-5zm12.955 5.35h-2.92L156.41 69H155l2.75-7h1.57l2.68 7h-1.419l-.626-1.65zm-.457-1.2l-1.004-2.65-1.003 2.65h2.007zm10.576.071c-.098-.29-.278-.504-.638-.567.81-.304 1.212-.877 1.212-1.754 0-1.1-.993-1.9-2.25-1.9H165v7h1.413v-2.65l.003.002 1.638-.008c.486 0 .644.134.786.576.21.645.683 2.08.683 2.08H171s-.623-1.877-.926-2.779zm-3.661-3.022h1.568c.837 0 1.254.311 1.254.96 0 .65-.417 1.01-1.254 1.01h-1.568V63.2zM88.415 60H90l-1.06 1H88zm70.001 0H160l-1.059 1H158zm-96 0H64l-1.059 1H62zM166 60h1.176l.842.4.807-.4H170l-1.258 1h-1.463z" />
    </g>
</svg>