<?xml version="1.0" standalone="no"?>
<!DOCTYPE svg PUBLIC "-//W3C//DTD SVG 20010904//EN" "http://www.w3.org/TR/2001/REC-SVG-20010904/DTD/svg10.dtd">
<svg version="1.0" xmlns="http://www.w3.org/2000/svg"
    width="4167.000000pt" height="661.000000pt" viewBox="0 0 4167.000000 661.000000"
    preserveAspectRatio="xMidYMid meet">

    <g transform="translate(0.000000,661.000000) scale(0.100000,-0.100000)"
        fill="#000000" stroke="none">
        <path d="M13950 3345 l0 -3265 480 0 480 0 0 3265 0 3265 -480 0 -480 0 0
-3265z" />
        <path
            d="M17430 6599 c-279 -29 -520 -114 -698 -248 -236 -178 -376 -436 -443
-816 -16 -93 -22 -177 -26 -372 l-6 -253 -388 0 -389 0 0 -420 0 -420 390 0
390 0 0 -1995 0 -1995 480 0 480 0 0 1995 0 1995 415 0 415 0 0 420 0 420
-416 0 -416 0 4 208 c5 229 19 314 69 417 49 102 128 171 237 206 59 19 96 23
295 27 l227 4 0 419 0 419 -267 -1 c-148 -1 -306 -6 -353 -10z" />
        <path
            d="M23610 3345 l0 -3265 485 0 485 0 0 1598 c0 1005 4 1623 10 1667 35
247 140 454 287 570 71 55 176 107 268 131 99 26 360 26 460 0 237 -61 405
-230 475 -476 50 -177 50 -172 50 -1887 l0 -1603 480 0 480 0 -3 1722 c-3
1890 1 1779 -62 2029 -161 643 -563 1010 -1205 1100 -138 19 -405 15 -540 -10
-252 -45 -467 -143 -642 -294 l-58 -49 0 1016 0 1016 -485 0 -485 0 0 -3265z" />
        <path
            d="M33375 6591 c-197 -48 -362 -179 -449 -355 -53 -106 -69 -189 -64
-326 7 -186 62 -312 195 -446 173 -175 443 -238 678 -159 106 35 186 85 265
165 327 331 230 875 -192 1075 -135 64 -292 81 -433 46z" />
        <path
            d="M5 6248 c4 -13 433 -1404 954 -3093 l947 -3070 517 -3 516 -2 34 107
c18 60 341 1101 717 2315 377 1214 687 2202 691 2195 3 -7 325 -1048 715
-2315 l709 -2302 520 0 521 0 928 3053 c511 1678 935 3071 942 3095 l13 42
-506 -2 -505 -3 -696 -2359 -696 -2358 -16 48 c-9 27 -329 1090 -711 2361
l-694 2313 -511 0 -511 0 -618 -2057 c-340 -1132 -659 -2194 -709 -2361 -62
-206 -93 -297 -98 -285 -5 10 -310 1035 -678 2278 -369 1243 -682 2297 -696
2343 l-25 82 -530 0 -529 0 5 -22z" />
        <path
            d="M19570 5805 l0 -465 620 0 620 0 0 -2630 0 -2630 490 0 490 0 0 2630
0 2630 623 2 622 3 0 460 0 460 -1732 3 -1733 2 0 -465z" />
        <path
            d="M10555 4959 c-565 -58 -1080 -291 -1459 -658 -137 -133 -233 -247
-329 -393 -357 -536 -491 -1227 -372 -1923 211 -1233 1204 -2020 2500 -1982
205 6 329 20 495 57 728 158 1321 612 1645 1259 243 485 326 1060 235 1620
-200 1223 -1185 2039 -2450 2030 -102 -1 -221 -5 -265 -10z m443 -879 c520
-57 946 -358 1171 -830 221 -464 223 -1071 5 -1539 -135 -290 -387 -547 -668
-681 -352 -168 -794 -194 -1171 -69 -641 213 -1046 853 -1011 1601 27 597 291
1071 741 1331 264 153 607 222 933 187z" />
        <path
            d="M29815 4964 c-447 -46 -843 -196 -1179 -447 -170 -128 -388 -360
-513 -547 -485 -725 -568 -1779 -208 -2620 72 -169 207 -390 320 -526 368
-441 867 -707 1500 -801 173 -25 602 -25 770 1 264 40 544 128 757 237 328
169 624 435 823 742 31 49 55 90 54 91 -28 22 -715 459 -724 460 -7 0 -40 -37
-75 -84 -237 -318 -537 -510 -891 -569 -372 -62 -746 -17 -1036 125 -364 178
-608 514 -698 959 -14 67 -25 136 -25 152 l0 30 323 7 c177 3 1004 16 1837 27
833 11 1518 24 1522 28 31 29 26 532 -7 756 -134 915 -639 1563 -1440 1845
-263 92 -500 131 -830 135 -132 2 -258 1 -280 -1z m553 -873 c375 -81 669
-283 845 -582 83 -141 149 -327 171 -481 l7 -48 -1335 0 c-1062 0 -1336 3
-1336 13 0 6 9 50 20 97 135 569 517 935 1063 1019 106 17 458 6 565 -18z" />
        <path
            d="M36140 4940 c-720 -58 -1221 -453 -1351 -1062 -18 -84 -23 -136 -23
-283 0 -194 13 -289 59 -450 112 -387 418 -686 892 -874 124 -49 263 -94 527
-171 115 -33 252 -78 304 -100 307 -128 432 -298 432 -585 0 -234 -103 -407
-300 -503 -134 -66 -189 -77 -380 -77 -141 1 -177 4 -245 23 -106 31 -187 75
-260 143 -132 124 -195 292 -211 562 l-7 117 -463 0 -464 0 0 -147 c1 -696
325 -1194 906 -1396 219 -76 429 -108 709 -109 870 -2 1485 427 1629 1137 53
261 32 629 -50 875 -150 448 -534 736 -1249 937 -446 125 -551 164 -675 248
-87 59 -157 144 -190 232 -28 72 -38 240 -21 325 38 182 177 316 377 364 85
21 275 23 359 5 274 -59 439 -291 462 -648 l6 -103 449 0 448 0 0 85 c0 170
-29 358 -81 529 -157 513 -554 832 -1132 911 -135 18 -339 25 -457 15z" />
        <path
            d="M39935 4943 c-336 -20 -633 -114 -873 -275 -168 -112 -353 -328 -437
-511 -89 -194 -120 -365 -112 -621 11 -356 101 -608 300 -834 214 -245 509
-405 1028 -557 313 -92 400 -121 507 -171 270 -125 374 -281 375 -559 1 -202
-64 -342 -208 -450 -131 -98 -297 -141 -510 -132 -224 10 -358 60 -476 178
-124 123 -186 292 -196 532 l-6 137 -466 -2 -466 -3 -3 -90 c-13 -360 96 -750
278 -994 280 -375 723 -561 1335 -563 268 0 457 27 672 98 532 174 871 550
969 1075 24 128 25 462 1 599 -37 213 -122 424 -226 561 -214 282 -565 475
-1157 638 -442 122 -573 179 -692 304 -113 121 -156 295 -117 480 39 183 168
309 375 363 88 24 291 24 379 1 263 -70 406 -275 442 -633 l12 -114 449 0 450
0 -7 118 c-26 455 -143 765 -380 1010 -188 196 -417 316 -720 377 -113 23
-355 47 -435 43 -19 -1 -57 -3 -85 -5z" />
        <path
            d="M33047 4693 c-9 -8 -9 -2298 0 -3606 l6 -1007 479 0 478 0 -2 2308
-3 2307 -476 3 c-261 1 -479 -1 -482 -5z" />
    </g>
</svg>